<svg width="310" height="183" viewBox="0 0 310 183" fill="none" xmlns="http://www.w3.org/2000/svg">
<path d="M144.438 160.875C144.438 160.875 133.375 160.875 133.375 149.812C133.375 138.75 144.438 105.562 188.688 105.562C232.938 105.562 244 138.75 244 149.812C244 160.875 232.938 160.875 232.938 160.875H144.438ZM188.688 94.5C197.489 94.5 205.931 91.0035 212.155 84.7796C218.378 78.5557 221.875 70.1144 221.875 61.3125C221.875 52.5106 218.378 44.0693 212.155 37.8454C205.931 31.6215 197.489 28.125 188.688 28.125C179.886 28.125 171.444 31.6215 165.22 37.8454C158.997 44.0693 155.5 52.5106 155.5 61.3125C155.5 70.1144 158.997 78.5557 165.22 84.7796C171.444 91.0035 179.886 94.5 188.688 94.5Z" fill="white"/>
<path fill-rule="evenodd" clip-rule="evenodd" d="M124.702 160.875C123.062 157.422 122.244 153.635 122.312 149.813C122.312 134.823 129.835 119.391 143.729 108.66C136.794 106.523 129.569 105.478 122.312 105.563C78.0625 105.563 67 138.75 67 149.813C67 160.875 78.0625 160.875 78.0625 160.875H124.702Z" fill="white"/>
<path d="M116.781 94.5C124.116 94.5 131.151 91.5862 136.337 86.3997C141.524 81.2131 144.438 74.1786 144.438 66.8438C144.438 59.5089 141.524 52.4744 136.337 47.2878C131.151 42.1013 124.116 39.1875 116.781 39.1875C109.446 39.1875 102.412 42.1013 97.2253 47.2878C92.0388 52.4744 89.125 59.5089 89.125 66.8438C89.125 74.1786 92.0388 81.2131 97.2253 86.3997C102.412 91.5862 109.446 94.5 116.781 94.5Z" fill="white"/>
<path fill-rule="evenodd" clip-rule="evenodd" d="M57.702 154.875C56.062 151.422 55.2442 147.635 55.3125 143.813C55.3125 128.823 62.835 113.391 76.7295 102.66C69.7943 100.523 62.5689 99.4782 55.3125 99.5626C11.0625 99.5626 0 132.75 0 143.813C0 154.875 11.0625 154.875 11.0625 154.875H57.702Z" fill="white"/>
<path d="M49.7812 88.5C57.1161 88.5 64.1506 85.5862 69.3372 80.3997C74.5237 75.2131 77.4375 68.1786 77.4375 60.8438C77.4375 53.5089 74.5237 46.4744 69.3372 41.2878C64.1506 36.1013 57.1161 33.1875 49.7812 33.1875C42.4464 33.1875 35.4119 36.1013 30.2253 41.2878C25.0388 46.4744 22.125 53.5089 22.125 60.8438C22.125 68.1786 25.0388 75.2131 30.2253 80.3997C35.4119 85.5862 42.4464 88.5 49.7812 88.5Z" fill="white"/>
<path fill-rule="evenodd" clip-rule="evenodd" d="M252.298 154.875C253.938 151.422 254.756 147.635 254.688 143.813C254.688 128.823 247.165 113.391 233.271 102.66C240.206 100.523 247.431 99.4782 254.688 99.5626C298.938 99.5626 310 132.75 310 143.813C310 154.875 298.938 154.875 298.938 154.875H252.298Z" fill="white"/>
<path d="M260.219 88.5C252.884 88.5 245.849 85.5862 240.663 80.3997C235.476 75.2131 232.562 68.1786 232.562 60.8438C232.562 53.5089 235.476 46.4744 240.663 41.2878C245.849 36.1013 252.884 33.1875 260.219 33.1875C267.554 33.1875 274.588 36.1013 279.775 41.2878C284.961 46.4744 287.875 53.5089 287.875 60.8438C287.875 68.1786 284.961 75.2131 279.775 80.3997C274.588 85.5862 267.554 88.5 260.219 88.5Z" fill="white"/>
</svg>
