<svg width="143" height="163" viewBox="0 0 143 163" fill="none" xmlns="http://www.w3.org/2000/svg">
<g clip-path="url(#clip0_262_481)">
<path d="M117.444 142.625H25.5157C17.0541 142.625 10.1942 149.467 10.1942 157.906C10.1942 160.72 12.481 163 15.3014 163H127.659C130.479 163 132.766 160.72 132.766 157.906C132.766 149.467 125.906 142.625 117.444 142.625ZM132.766 50.9375H81.6942V35.6562H94.4621C95.8586 35.6562 97.0157 34.5022 97.0157 33.1094V17.8281C97.0157 16.4353 95.8586 15.2812 94.4621 15.2812H81.6942V2.54688C81.6942 1.15405 80.5372 0 79.1407 0H63.8192C62.4228 0 61.2657 1.15405 61.2657 2.54688V15.2812H48.4978C47.1013 15.2812 45.9442 16.4353 45.9442 17.8281V33.1094C45.9442 34.5022 47.1013 35.6562 48.4978 35.6562H61.2657V50.9375H10.1942C6.96238 50.9375 3.89011 52.4895 1.97493 55.0762C0.059755 57.7026 -0.498839 61.0852 0.458751 64.1494L23.7601 132.438H119.2L142.501 64.1494C143.459 61.0852 142.9 57.7026 140.985 55.0762C139.07 52.4895 135.998 50.9375 132.766 50.9375Z" fill="#131635"/>
</g>
<defs>
<clipPath id="clip0_262_481">
<rect width="143" height="163" fill="white"/>
</clipPath>
</defs>
</svg>
