<svg width="165" height="165" viewBox="0 0 165 165" fill="none" xmlns="http://www.w3.org/2000/svg">
<path d="M139.219 97.9688C137.766 97.9688 136.389 98.233 135.056 98.6075L125.482 82.5L135.056 66.3925C136.389 66.767 137.766 67.0312 139.219 67.0312C147.762 67.0312 154.688 60.1058 154.688 51.5625C154.688 43.0192 147.762 36.0938 139.219 36.0938C132.493 36.0938 126.827 40.4121 124.697 46.4062H104.011L92.5508 27.139C95.8411 24.302 97.9688 20.1542 97.9688 15.4688C97.9688 6.92549 91.0433 0 82.5 0C73.9567 0 67.0312 6.92549 67.0312 15.4688C67.0312 20.1667 69.1708 24.3246 72.4762 27.1615L61.0291 46.4062H40.3032C38.1727 40.4121 32.5066 36.0938 25.7812 36.0938C17.238 36.0938 10.3125 43.0192 10.3125 51.5625C10.3125 60.1058 17.238 67.0312 25.7812 67.0312C27.2372 67.0312 28.6175 66.7657 29.953 66.3899L39.5581 82.5L29.953 98.6101C28.6175 98.2343 27.2372 97.9688 25.7812 97.9688C17.238 97.9688 10.3125 104.894 10.3125 113.438C10.3125 121.981 17.238 128.906 25.7812 128.906C32.5066 128.906 38.1727 124.588 40.3032 118.594H60.9888L72.4492 137.861C69.1588 140.698 67.0312 144.846 67.0312 149.531C67.0312 158.075 73.9567 165 82.5 165C91.0433 165 97.9688 158.075 97.9688 149.531C97.9688 144.833 95.8292 140.675 92.5238 137.838L103.971 118.594H124.696C126.827 124.588 132.493 128.906 139.219 128.906C147.762 128.906 154.688 121.981 154.688 113.438C154.688 104.894 147.762 97.9688 139.219 97.9688ZM82.5 103.125C71.0999 103.125 61.875 93.9001 61.875 82.5C61.875 71.0999 71.0999 61.875 82.5 61.875C93.9001 61.875 103.125 71.0999 103.125 82.5C103.125 93.9001 93.9001 103.125 82.5 103.125Z" fill="#131635"/>
</svg>
