<svg width="284" height="467" viewBox="0 0 284 467" fill="none" xmlns="http://www.w3.org/2000/svg">
<g clip-path="url(#clip0_191_1048)">
<path d="M81.5521 247.996L81.8415 243.772C83.2311 241.254 86.7919 240.878 87.6315 237.753C88.1349 236.346 88.9346 235.064 89.9764 233.992C91.2545 233.199 92.7784 232.901 94.2612 233.153C97.5904 233.76 96.5482 238.448 99.8485 239.113C101.354 242.354 99.9933 245.913 101.122 249.153C101.875 254.651 102.136 260.235 105.233 265.125C106.983 269.006 108.501 272.986 109.778 277.046C110.373 279.161 110.809 281.318 111.081 283.498C113.976 291.455 115.25 300.02 119.071 307.717C120.779 321.142 119.506 334.597 119.911 347.993C120.229 353.201 119.216 358.496 120.635 363.647C121.152 366.797 121.947 369.895 123.009 372.906C123.967 374.742 124.511 376.767 124.601 378.837C123.24 385.058 125.353 390.729 127.496 396.4C127.799 397.415 128.031 398.449 128.191 399.496C128.364 406.903 130.883 414.311 128.451 421.747C128.212 422.732 127.902 423.699 127.525 424.64C126.077 427.91 124.398 431.064 122.835 434.304C121.495 437.082 119.738 439.639 117.624 441.885C116.636 442.723 115.474 443.329 114.221 443.659C112.969 443.99 111.659 444.036 110.386 443.795C106.015 438.471 98.6325 439.368 93.4505 435.664C92.2138 435.051 91.1331 434.164 90.2904 433.071C89.4477 431.978 88.8651 430.708 88.5869 429.357C88.3709 427.678 88.8059 425.98 89.8027 424.611C91.067 423.568 92.5855 422.879 94.2032 422.615C96.1459 422.555 98.0519 422.07 99.7874 421.195C101.523 420.321 103.046 419.077 104.249 417.551C99.3139 418.872 94.0933 418.661 89.2817 416.944C84.3312 415.121 80.4231 415.989 81.4363 422.731C81.9507 423.556 82.3867 424.428 82.7389 425.335C83.2145 426.749 83.3631 428.253 83.1732 429.733C82.845 431.709 82.3214 433.647 81.61 435.52C81.2251 436.971 80.2907 438.216 79.0044 438.992C69.4509 433.378 68.2639 422.759 64.1241 413.934C68.2929 405.254 55.9891 405.254 56.1628 398.57C56.3057 397.543 56.6504 396.554 57.177 395.66C57.7037 394.766 58.4018 393.985 59.2315 393.362C60.5632 392.755 62.8503 393.565 63.0819 393.131C63.8636 391.684 62.0108 391.973 61.5187 392.031C56.7709 392.581 51.5019 391.018 47.7094 395.445C47.0647 396.231 46.2148 396.823 45.2541 397.155C44.2933 397.487 43.2593 397.546 42.2668 397.326C41.3555 396.919 40.5451 396.317 39.8929 395.561C39.134 394.375 38.0214 393.458 36.7122 392.939C35.403 392.419 33.9636 392.325 32.5976 392.668C30.2796 393.378 27.8185 393.485 25.4476 392.978C23.0766 392.472 20.8741 391.369 19.0488 389.774C16.8197 388.733 14.6485 388.067 12.7957 390.382C11.5219 393.275 14.33 395.561 14.0405 398.281C13.4615 400.306 12.9114 402.419 10.0164 401.175C1.5051 393.825 -2.25839 380.92 1.70777 372.385C5.97879 373.773 10.5802 373.773 14.8512 372.385L35.1162 363.705C38.4744 364.544 42.788 367.842 43.0775 360.666C43.5118 358.844 43.9171 357.021 45.9725 356.355C49.0123 351.87 53.4126 348.543 56.5392 344.116C62.3292 337.345 63.082 328.144 68.3798 321.229C72.7513 315.153 71.2749 307.312 74.5752 300.975C79.9599 299.586 79.7572 296.432 77.2675 292.526C78.4834 285.148 75.2119 277.364 79.1492 270.189C82.3337 272.764 83.1444 277.104 86.3289 279.679C90.0055 283.094 86.9368 288.707 90.4108 292.121C91.0799 291.384 91.5776 290.508 91.868 289.556C92.1584 288.605 92.2345 287.6 92.0906 286.615C91.9467 285.631 91.5864 284.69 91.0357 283.861C90.485 283.032 89.7574 282.335 88.9053 281.82C87.7596 281.017 86.6933 280.106 85.7209 279.101C83.1733 276.439 82.2468 272.532 79.1202 270.42C78.6622 268.517 78.5954 266.541 78.9239 264.611C79.2523 262.681 79.9692 260.839 81.031 259.194C83.9839 255.374 82.3627 251.671 81.5521 247.996Z" fill="#FB2E3D"/>
<path d="M56.5971 175.487C53.8179 166.466 53.8179 156.818 56.5971 147.796C57.9867 149.127 58.6815 150.516 57.842 151.326C58.7105 149.909 57.6972 147.276 58.0446 144.845C57.5235 141.431 61.7502 138.74 59.4631 135.065C66.498 109.719 83.2601 90.4197 99.4432 70.7443C103.728 68.1403 108.823 71.2072 113.136 68.8346C113.482 68.4636 113.898 68.1652 114.36 67.9565C114.823 67.7479 115.322 67.6332 115.829 67.6194C117.318 67.8849 118.657 68.6882 119.592 69.8763C120.432 70.9759 121.156 72.1911 121.995 73.3195C124.601 75.4028 127.091 74.3032 129.58 73.0591C131.33 72.0187 133.236 71.2664 135.225 70.8311C137.843 70.305 140.562 70.6612 142.955 71.8439C145.18 73.9386 147.047 76.3819 148.485 79.0774C149.107 80.4347 149.28 81.9554 148.977 83.4176C148.05 86.0506 149.208 87.613 151.669 88.4521C152.471 88.6356 153.308 88.601 154.092 88.3516C154.876 88.1023 155.579 87.6474 156.127 87.0344C158.241 85.0958 158.53 82.2603 159.688 79.8587C160.449 78.5975 161.567 77.5904 162.902 76.9653C163.828 76.6257 164.811 76.4684 165.797 76.5022C169.01 76.7048 172.31 77.9201 175.292 75.6632C175.756 74.8241 176.219 74.0428 176.653 73.2037C177.034 72.2977 177.598 71.4804 178.311 70.8031C179.023 70.1259 179.868 69.6034 180.793 69.2687C181.766 68.9513 182.801 68.8749 183.809 69.0463C184.818 69.2177 185.77 69.6317 186.583 70.2525C199.495 65.9702 202.187 77.1099 207.572 84.1409C206.848 86.2821 205.198 87.9024 204.474 89.9278C203.712 92.6674 203.36 95.5049 203.432 98.3476C203.409 100.419 202.763 102.435 201.579 104.134C200.998 104.612 200.314 104.95 199.581 105.12C198.848 105.291 198.085 105.29 197.352 105.118C191.562 102.746 193.531 107.636 192.894 110.008C193.059 111.84 192.932 113.685 192.518 115.477C192.344 116.837 192.083 118.168 191.823 119.499C191.659 120.383 191.427 121.254 191.128 122.103L189.391 127.195C189.116 128.053 188.768 128.886 188.349 129.684C187.112 132.048 186.141 134.542 185.454 137.12C185.199 137.976 184.869 138.809 184.469 139.608C183.311 141.547 181.951 143.341 180.677 145.192C180.129 145.904 179.486 146.537 178.766 147.073C178.008 147.505 177.225 147.891 176.421 148.23C175.64 148.635 174.858 149.041 174.105 149.503C173.667 150.052 173.343 150.683 173.153 151.359C172.963 152.035 172.911 152.742 173 153.438C173.09 154.135 173.318 154.806 173.672 155.413C174.026 156.019 174.498 156.548 175.061 156.969C175.83 157.636 176.494 158.417 177.029 159.283C177.177 160.305 176.917 161.345 176.306 162.177C171.876 165.851 166.434 166.17 161.107 166.835C155.78 167.501 150.337 169.584 144.779 167.877C143.179 167.339 141.709 166.472 140.465 165.331C139.229 164.208 138.242 162.838 137.57 161.309C136.391 158.211 136.289 154.807 137.281 151.645C137.648 150.599 138.186 149.621 138.873 148.751C140.886 146.173 143.825 144.481 147.066 144.035C144.576 142.415 142.434 144.035 140.234 144.353C136.557 145.019 135.139 150.632 130.391 149.012C126.425 146.118 123.153 151.5 119.303 150.024C116.222 149.326 113.516 147.499 111.718 144.903C111.15 144.049 110.675 143.137 110.299 142.183C109.195 138.861 107.9 135.605 106.42 132.432C105.94 131.017 105.629 129.551 105.494 128.063C104.944 124.186 105.494 119.383 99.1537 120.193C96.4614 120.193 94.0295 118.515 91.2792 118.862C87.8921 119.846 88.7316 122.797 88.3842 125.17C88.1816 129.278 86.5315 133.098 86.4736 137.206C86.011 140.902 85.3147 144.565 84.3891 148.173C84.0996 149.735 83.6944 151.24 83.2602 152.773C81.7837 156.621 82.1311 160.817 81.0889 164.752C81.9285 167.385 76.0515 168.832 79.8729 171.986C81.1005 172.646 82.1071 173.652 82.7679 174.879C83.3344 176.167 83.6489 177.552 83.6943 178.959C83.6865 180.339 83.3804 181.701 82.7969 182.952C82.3166 183.697 81.6606 184.313 80.8863 184.746C78.5124 187.321 80.5389 189.954 80.8863 192.529C81.0564 193.483 81.1243 194.453 81.0889 195.422C80.1077 199.505 79.9014 203.735 80.4809 207.893C80.4809 209.513 80.1624 211.221 82.7969 210.787C85.2186 210.227 87.7536 210.418 90.0634 211.336C90.9982 211.872 91.8154 212.59 92.4663 213.448C93.9476 215.751 94.8774 218.363 95.1837 221.083C95.49 223.803 95.1644 226.557 94.2322 229.131C88.8185 234.05 85.5472 226.556 80.8283 226.932C77.9333 225.832 75.9068 222.649 72.1433 222.91C71.2701 222.638 70.4264 222.279 69.6246 221.839C64.9347 214.345 60.1289 206.475 59.7526 197.708C59.5499 192.76 56.8576 188.594 57.4076 183.791C58.0194 183.105 58.5445 182.347 58.971 181.534C59.4329 179.335 59.4918 177.07 59.1447 174.85C57.6393 173.23 57.4946 175.66 56.5971 175.487Z" fill="#1E1E1E"/>
<path d="M191.939 436.214L183.254 433.783C181.102 431.206 179.302 428.355 177.898 425.306C177.377 422.239 178.129 418.304 173.034 418.535C171.416 418.224 169.954 417.366 168.894 416.105C167.533 413.57 166.93 410.697 167.157 407.829C167.538 403.267 168.511 398.773 170.052 394.462C173.237 388.357 168.431 381.21 172.571 375.22C176.711 369.231 175.032 361.129 177.406 354.359C177.84 353.275 178.384 352.238 179.027 351.263C181.603 339.458 179.606 327.508 180.243 315.645C180.243 312.751 180.243 309.858 180.474 306.964C180.594 305.259 180.934 303.576 181.488 301.959C181.836 300.696 182.475 299.534 183.355 298.564C184.235 297.594 185.331 296.844 186.554 296.374C187.451 296.027 187.278 298.139 188.493 297.358C187.83 297.12 187.261 296.673 186.872 296.085C186.041 294.951 185.586 293.585 185.57 292.179C185.544 290.636 185.82 289.103 186.38 287.665C187.567 285.379 188.754 283.122 191.794 283.007C193.589 283.47 193.791 286.797 196.484 285.611C197.786 283.672 196.657 282.717 195.152 281.791C193.846 281.179 192.637 280.38 191.562 279.419C190.11 277.358 189.222 274.955 188.986 272.446C189.006 270.394 189.79 268.424 191.186 266.919C194.718 264.431 194.399 260.206 195.818 256.792C197.034 254.969 199.581 254.275 200.045 251.787C200.045 248.488 197.815 246.52 196.02 244.264C195.43 243.369 194.972 242.395 194.66 241.37C194.058 238.682 193.757 235.936 193.762 233.182C193.936 227.916 193.068 222.563 195.123 217.471C195.631 216.392 196.459 215.495 197.496 214.905C198.532 214.315 199.725 214.059 200.913 214.172C206.298 219.814 202.187 226.845 203.808 233.066C203.795 234.545 204.107 236.008 204.723 237.353C205.338 238.698 206.241 239.892 207.369 240.849C211.943 245.218 210.119 251.555 212.319 256.676V259.165C209.772 269.436 212.754 279.419 213.304 289.748C214.109 291.2 214.76 292.732 215.243 294.32C215.634 295.878 215.634 297.508 215.243 299.065C214.657 304.137 214.991 309.273 216.228 314.227C218.486 316.831 212.869 321.894 219.123 323.225C222.895 332.767 225.736 342.651 227.605 352.738C227.287 357.108 225.984 361.419 226.997 365.904C227.315 369.231 230.326 369.694 232.527 371.054C238.49 375.799 230.268 381.441 233.511 386.389C233.623 387.148 233.555 387.923 233.314 388.652C233.073 389.38 232.664 390.042 232.121 390.584C229.91 391.723 227.418 392.205 224.942 391.973C224.363 392.35 223.118 391.105 222.973 392.668C222.828 394.23 222.712 391.973 223.899 392.928C226.592 393.333 229.4 391.626 231.832 393.767C233.569 396.661 230.789 398.107 229.689 400.104C228.589 402.1 227.547 404.531 225.289 405.891C222.539 404.676 219.702 403.229 219.152 408.09L218.573 411.909C215.223 414.809 212.142 418.004 209.367 421.457C208.284 422.218 207.062 422.757 205.77 423.045C204.479 423.333 203.143 423.364 201.839 423.136C199.35 422.904 196.86 423.136 194.428 422.731C193.833 422.625 193.257 422.43 192.72 422.152C192.431 423.685 193.762 422.557 194.168 422.991C196.386 422.886 198.607 423.15 200.739 423.772C205.256 425.479 208.035 422.528 210.988 419.982C211.674 419.67 212.446 419.601 213.177 419.785C213.908 419.969 214.555 420.395 215.012 420.994C219.267 426.781 213.593 428.894 211.075 432.192C207.948 432.713 207.629 436.908 204.387 437.284C200.045 436.908 195.847 438.558 191.939 436.214Z" fill="#FA2E3D"/>
<path d="M196.513 104.019H200.942C206.356 103.296 202.65 99.4474 203.316 97.0748C203.322 95.6404 203.777 94.2438 204.619 93.0818C205.81 92.298 207.189 91.8449 208.613 91.7686C210.037 91.6923 211.456 91.9958 212.725 92.6479C221.207 98.8977 228.097 106.16 228.3 117.589C227.055 118.168 226.534 119.615 225.231 120.136C223.407 120.136 221.786 120.83 222.336 123.029C222.77 124.765 223.957 125.922 226.013 125.141C227.547 123.492 227.837 121.003 229.747 119.672C236.389 129.488 240.204 140.938 240.777 152.773C239.994 153.908 239.416 155.172 239.069 156.506C238.519 160.596 238.519 164.742 239.069 168.832C239.45 170.14 239.974 171.401 240.633 172.593C240.082 180.232 239.851 187.958 236.695 195.133C236.542 194.83 236.305 194.576 236.013 194.402C235.721 194.228 235.385 194.14 235.045 194.15C236.087 196.464 234.611 199.184 236.203 201.383C232.469 217.21 225.781 231.301 212.551 241.515C210.206 242.875 208.498 241.515 206.761 240.126C205.512 239.13 204.519 237.851 203.866 236.394C201.735 229.424 201.595 221.998 203.461 214.953C203.673 213.918 204.086 212.935 204.677 212.06C206.122 210.708 207.773 209.594 209.569 208.761C211.702 207.694 213.987 206.962 216.343 206.591C220.512 205.926 219.731 203.061 219.238 200.284C218.138 197.188 220.975 194.236 219.441 190.677C220.136 192.963 219.991 194.468 217.878 195.191C214.143 193.658 214.462 190.475 214.635 187.35C215.388 184.196 216.372 181.1 217.154 177.975C218.167 173.982 215.851 178.843 215.649 177.541C212.754 176.384 212.58 174.011 212.754 171.407C213.155 169.973 213.749 168.601 214.52 167.327C216.072 164.37 216.415 160.926 215.475 157.721C215.368 156.752 215.436 155.772 215.678 154.828C216.056 153.96 216.512 153.127 217.038 152.339C217.924 150.718 218.371 148.894 218.336 147.047C218.3 145.199 217.783 143.394 216.835 141.807C214.995 139.776 212.846 138.047 210.467 136.686C207.34 134.574 204.503 132.114 201.463 129.915C200.728 129.298 200.076 128.588 199.523 127.803C198.713 126.646 197.931 125.43 197.121 124.244C195.955 122.653 195.101 120.857 194.602 118.949C194.363 117.951 194.208 116.935 194.139 115.911C193.994 113.828 194.457 111.745 194.312 109.661C194.199 108.613 194.34 107.554 194.723 106.572C195.106 105.59 195.72 104.714 196.513 104.019Z" fill="#1F1F1F"/>
<path d="M143.332 73.0013L133.894 72.77C132.467 70.9326 131.692 68.6726 131.692 66.3465C131.692 64.0204 132.467 61.7605 133.894 59.9231L136.413 57.0297C139.018 56.5089 137.194 54.1363 138.15 52.8632C138.526 51.0403 141.045 49.4778 138.758 47.3656C137.918 47.1408 137.05 47.0434 136.181 47.0763C132.128 43.1702 132.128 36.5732 126.772 33.3615C126.304 33.0954 125.932 32.6878 125.71 32.1971C125.488 31.7065 125.427 31.158 125.536 30.6307C125.646 30.1034 125.92 29.6243 126.319 29.2624C126.718 28.9004 127.221 28.6742 127.757 28.6162C129.259 27.6984 130.665 26.6321 131.954 25.4333C133.055 24.7389 134.271 24.2182 135.313 23.408C137.079 19.444 133.807 15.9429 134.357 12.1236C134.357 9.37482 135.313 6.71284 135.313 3.96408C135.438 3.06882 135.88 2.2479 136.558 1.64937C137.037 0.916387 137.746 0.362693 138.573 0.0747951C139.401 -0.213103 140.3 -0.218962 141.132 0.058018C141.812 0.66257 142.56 1.18677 143.361 1.62041C145.542 2.19954 147.838 2.19954 150.019 1.62041C150.8 1.16229 151.519 0.608199 152.162 -0.0288698C157.952 1.79399 162.294 6.74174 169.068 7.00215C173.006 7.00215 173.874 9.51942 171.182 13.8596C168.49 18.1997 168.837 23.3211 167.824 28.1531C169.995 30.1207 168.75 32.9852 169.763 35.271C165.71 43.0833 155.636 48.928 161.831 60.0099C161.831 60.4728 161.831 60.9647 161.628 61.4566C160.847 66.4333 164.523 70.8602 163.481 75.9237C163.481 76.4156 163.481 76.9075 163.278 77.3994L161.02 79.6274C159.811 80.7985 158.238 81.523 156.562 81.6816C154.931 81.7326 153.33 81.2333 152.017 80.2639C149.527 77.3994 154.333 65.7967 143.332 73.0013Z" fill="#201F1F"/>
<path d="M116.292 440.641L120.316 433.754C121.39 432.993 122.676 432.588 123.993 432.597C128.393 431.989 123.646 430.08 124.485 428.951C124.309 427.538 124.626 426.108 125.383 424.901C125.28 424.254 125.425 423.593 125.788 423.049C129.416 421.648 133.419 421.555 137.107 422.788C138.931 425.219 138.671 429.675 143.447 429.241C144.174 430.055 144.656 431.058 144.837 432.134C143.042 437.053 146.342 442.55 143.013 447.238C137.947 450.131 142.405 459.448 134.328 460.403C129.605 458.445 124.772 456.764 119.853 455.368C115.482 452.475 117.248 447.585 115.742 443.795C115.557 442.711 115.751 441.597 116.292 440.641Z" fill="#1F1F1F"/>
<path d="M227.519 398.599L231.948 394.172L232.382 392.899C234.467 390.845 233.945 387.72 235.451 385.405C236.067 384.67 236.852 384.094 237.738 383.727C243.528 382.946 248.971 385.405 254.645 385.753C255.832 394.172 255.832 394.172 245.96 398.831C252.01 401.146 255.6 404.618 251.373 410.983C246.683 416.481 241.444 411.359 236.493 411.707C236.493 411.157 236.493 410.578 236.291 410C234.16 405.651 231.177 401.774 227.519 398.599Z" fill="#FD2C3E"/>
<path d="M19.2812 387.517C23.4789 389.658 27.5609 392.523 32.5693 389.745C34.7406 392.812 39.2278 391.192 41.428 394.172V396.4C40.5885 403.663 30.8323 399.612 29.269 405.977C28.0958 407.148 26.6397 407.995 25.0422 408.437C22.2508 408.875 19.3943 408.606 16.7335 407.656C13.8126 406.252 11.4183 403.95 9.90137 401.088C10.8119 400.704 11.5802 400.047 12.0991 399.207C12.6181 398.367 12.8617 397.385 12.7964 396.4C13.2199 395.564 13.7885 394.81 14.4755 394.172C16.6757 392.494 16.8783 389.196 19.2812 387.517Z" fill="#FD2C3C"/>
<path d="M278.413 372.414C282.9 372.935 285.534 374.41 282.958 379.589C280.063 385.579 279.339 392.986 272.594 396.719C268.135 398.281 266.804 394.867 265.24 392.002C264.43 388.096 261.042 386.215 258.437 383.814C257.51 382.769 256.958 381.444 256.869 380.05C256.78 378.656 257.159 377.272 257.945 376.117C259.007 375.309 260.239 374.751 261.547 374.486C262.856 374.22 264.207 374.254 265.501 374.584C267.961 375.134 270.191 377.477 272.97 375.654C273.665 375.163 274.36 374.7 275.025 374.179C276.124 373.534 277.254 372.944 278.413 372.414Z" fill="#FA303C"/>
<path d="M78.8887 439.078L79.0913 434.044C84.2734 433.031 89.4264 436.561 94.5796 434.044C99.7327 436.937 107.375 435.606 110.097 442.724C110.097 444.2 111.863 444.026 112.326 445.097C100.08 449.205 88.5001 449.408 78.8887 439.078Z" fill="#FC2E3F"/>
<path d="M178.535 440.699C178.795 444.46 182.848 447.469 180.793 451.723C178.361 451.983 177.261 453.603 176.305 455.687C175.147 458.291 173.41 459.94 170.689 457.076C169.097 455.34 169.502 453.025 169.097 451.289C165.073 450.016 160.643 459.188 157.169 450.363C157.125 449.386 157.242 448.408 157.517 447.469C159.343 443.948 160.183 439.999 159.949 436.04C160.066 434.778 160.623 433.597 161.522 432.704C162.422 431.81 163.607 431.26 164.87 431.15C167.18 431.868 169.285 433.128 171.008 434.825C173.785 436.413 176.319 438.391 178.535 440.699Z" fill="#1E1F1E"/>
<path d="M232.093 385.318C227.49 384.711 227.345 382.425 230.211 379.532C232.469 377.275 234.148 375.162 232.093 371.951C231.488 371.279 231.064 370.464 230.862 369.583C230.659 368.702 230.684 367.785 230.935 366.916C232.324 364.428 234.177 363.444 236.725 365.209C237.36 365.267 238 365.267 238.635 365.209C240.427 364.817 242.301 365.096 243.901 365.991C245.502 366.887 246.718 368.338 247.32 370.07C250.389 379.908 243.412 382.512 236.435 385.145C236.176 385.464 235.852 385.724 235.484 385.908C235.117 386.092 234.714 386.196 234.303 386.213C233.892 386.229 233.483 386.158 233.102 386.003C232.72 385.849 232.376 385.616 232.093 385.318Z" fill="#FC2C3E"/>
<path d="M172.137 456.207C176.132 456.67 174.685 452.909 175.524 451.289C178.072 446.428 179.114 451.289 180.793 451.723C181.16 454.996 180.364 458.294 178.543 461.039C176.722 463.785 173.994 465.803 170.834 466.74C169.519 467.033 168.158 467.064 166.83 466.83C165.502 466.596 164.234 466.101 163.099 465.375C161.963 464.649 160.982 463.705 160.213 462.599C159.444 461.492 158.902 460.244 158.617 458.927C162.091 453.025 166.376 450.826 172.137 456.207Z" fill="#202020"/>
<path d="M181.112 70.5998L178.593 74.7374C175.843 78.2385 172.195 77.3993 168.576 76.8496C162.323 72.9145 161.31 66.5779 160.847 60.0098C160.909 59.9365 160.987 59.8777 161.074 59.8374C161.162 59.7971 161.257 59.7761 161.353 59.7761C161.45 59.7761 161.545 59.7971 161.632 59.8374C161.72 59.8777 161.797 59.9365 161.86 60.0098C167.245 59.7494 172.398 60.2412 176.596 64.1763C178.506 66.0281 182.386 66.4912 181.112 70.5998Z" fill="#E73340"/>
<path d="M133.952 59.9231C134.893 64.1537 134.893 68.5393 133.952 72.7699L130.044 75.4319C126.309 76.4156 122.604 77.4572 119.101 74.8531L118.638 70.8891C122.17 69.5292 122.778 67.3881 120.404 64.4368C120.322 63.971 120.397 63.4912 120.617 63.0724C120.837 62.6537 121.19 62.3196 121.62 62.1221L133.952 59.9231Z" fill="#EB3341"/>
<path d="M56.945 398.599C57.291 399.614 57.8899 400.523 58.6851 401.242C59.4804 401.961 60.4458 402.466 61.4902 402.708C71.6227 404.473 68.0908 409.161 64.0088 414.022C63.7482 413.837 63.5501 413.578 63.4415 413.278C63.3328 412.978 63.3186 412.652 63.4008 412.343C62.7929 408.9 59.7532 408.119 57.2056 406.817C51.9367 404.878 46.0018 408.524 40.9355 404.849C44.0622 397.066 48.839 393.565 56.945 398.599Z" fill="#FD2C3C"/>
<path d="M178.796 425.19C184.586 425.827 182.849 430.34 183.225 433.87C180.88 434.912 178.825 431.295 176.422 433.436C171.587 435.433 171.906 430.543 169.937 428.662C169.135 427.23 168.513 425.704 168.084 424.119C167.644 422.789 167.582 421.363 167.904 419.999C168.226 418.635 168.92 417.387 169.908 416.394H174.367C177.522 418.448 175.785 422.991 178.796 425.19Z" fill="#F62E3F"/>
<path d="M69.4219 221.753L72.4906 221.377C78.2806 220.393 77.4989 226.961 81.0019 228.639C83.8969 232.516 89.6869 235.989 82.8258 241.284L81.552 241.804C75.4631 236.592 71.2108 229.563 69.4219 221.753Z" fill="#29272B"/>
<path d="M227.519 398.599C237.246 397.182 236.696 403.634 236.204 410C232.353 409.934 228.584 408.878 225.261 406.933C224.489 406.585 224.228 406.209 224.479 405.804C224.711 405.428 224.971 405.225 225.203 405.225C225.405 402.795 224.942 400.191 227.519 398.599Z" fill="#F9303C"/>
<path d="M236.696 365.267C235.765 365.179 234.828 365.351 233.989 365.765C233.151 366.179 232.444 366.818 231.948 367.611C231.515 368.049 230.999 368.397 230.43 368.634C229.861 368.872 229.25 368.994 228.633 368.994C228.017 368.994 227.406 368.872 226.837 368.634C226.268 368.397 225.752 368.049 225.319 367.611C223.933 365.625 223.189 363.262 223.189 360.84C223.189 358.419 223.933 356.055 225.319 354.069C230.385 355.371 230.153 363.126 236.291 363.155C236.269 363.88 236.408 364.601 236.696 365.267Z" fill="#FA2D3D"/>
<path d="M172.137 456.207C169.889 455.152 167.362 454.847 164.928 455.337C162.494 455.826 160.281 457.085 158.617 458.927C155.114 456.728 156.736 452.012 153.985 449.408C154.27 449.152 154.54 448.882 154.796 448.598C155.493 448.312 156.244 448.184 156.996 448.222C157.702 448.439 158.327 448.862 158.791 449.437C164.089 454.587 167.013 447.903 171.587 447.498C173.092 449.9 169.56 453.401 172.137 456.207Z" fill="#1C1C1C"/>
<path d="M267.412 389.745C267.376 391.322 267.87 392.866 268.814 394.13C269.758 395.394 271.099 396.305 272.623 396.718C272.97 400.48 270.162 401.898 267.556 403.431C264.401 401.666 260.521 401.435 257.858 398.686C257.514 397.932 257.336 397.113 257.336 396.285C257.336 395.456 257.514 394.637 257.858 393.883C260.348 391.076 262.403 386.939 267.412 389.745Z" fill="#F4303E"/>
<path d="M121.098 454.009C126.888 453.343 131.636 454.819 134.445 460.403C131.723 461.271 132.447 466.768 127.931 465.293C123.415 463.817 122.459 459.969 120.433 456.613C120.325 456.157 120.329 455.682 120.445 455.229C120.561 454.775 120.785 454.356 121.098 454.009Z" fill="#1B1B1B"/>
<path d="M209.801 420.763C208.932 414.224 211.364 410.896 218.312 411.88C217.82 415.179 220.686 419.808 214.751 420.965L209.801 420.763Z" fill="#F82F3D"/>
<path d="M211.827 291.745C208.573 281.126 208.654 269.765 212.059 259.194L212.406 269.581C213.159 276.988 214.23 284.425 211.827 291.745Z" fill="#B11D1F"/>
<path d="M212.725 92.6476C211.667 93.42 210.402 93.86 209.093 93.9116C207.783 93.9631 206.488 93.6237 205.372 92.9369C204.632 92.4574 204.035 91.7882 203.643 90.9992C203.251 90.2103 203.078 89.3307 203.143 88.4521C203.088 87.8483 203.168 87.2399 203.377 86.6706C203.585 86.1013 203.917 85.5851 204.349 85.1592C204.781 84.7333 205.301 84.4082 205.873 84.2072C206.446 84.0061 207.055 83.9341 207.659 83.9963C210.525 86.2242 213.072 88.4522 212.725 92.6476Z" fill="#262724"/>
<path d="M121.156 456.179C125.238 457.857 126.107 461.965 127.931 465.293C121.649 467.521 119.738 466.103 118.898 458.638C117.856 456.179 119.188 455.918 121.156 456.179Z" fill="#252525"/>
<path d="M171.847 427.476C173.353 429.443 174.742 431.382 176.421 433.262C177.203 435.664 179.49 437.661 178.535 440.612C176.86 440.511 175.224 440.066 173.73 439.304C172.235 438.542 170.915 437.48 169.85 436.185C168.402 432.771 166.057 429.298 171.847 427.476Z" fill="#1D221D"/>
<path d="M225.26 405.225C225.26 405.804 225.26 406.354 225.26 406.932L218.833 408.061C220.483 404.56 212.203 402.274 216.98 399.381C222.249 396.111 222.452 403.2 225.26 405.225Z" fill="#F82F3D"/>
<path d="M42.8464 360.435C44.815 361.737 48.6364 362.952 45.7414 365.73C41.891 369.318 37.6932 367.987 34.8271 363.473C37.8959 363.473 39.4882 359.683 42.8464 360.435Z" fill="#FD263C"/>
<path d="M77.1229 292.266C84.013 294.262 81.4944 298.892 79.3231 302.364C76.7755 306.443 75.6754 302.595 74.4306 300.714C73.2147 297.213 77.4124 295.477 77.1229 292.266Z" fill="#FE3043"/>
<path d="M256.382 412.227L254.123 411.62C251.46 406.585 253.573 403.46 258.205 401.29C261.1 401.29 264.632 400.364 265.153 404.965L256.382 412.227Z" fill="#FB3040"/>
<path d="M16.7334 407.656L26.0264 407.279C29.1671 405.407 32.7977 404.52 36.4484 404.733C38.2386 404.941 39.9808 405.45 41.6016 406.238C43.3386 406.469 45.2493 406.238 46.4652 407.829C36.5353 410.925 26.5475 412.169 16.7334 407.656Z" fill="#B4373E"/>
<path d="M207.745 238.911L212.406 241.515L211.972 256.734L205.574 241.399C205.593 240.797 205.819 240.221 206.215 239.767C206.611 239.313 207.152 239.011 207.745 238.911Z" fill="#B32C3C"/>
<path d="M211.827 291.745C212.02 284.376 212.213 276.988 212.406 269.581L214.491 287.868C214.288 290.038 214.056 292.208 213.854 294.378C213.13 293.51 212.464 292.613 211.827 291.745Z" fill="#DB5758"/>
<path d="M149.412 420.995C149.412 421.544 149.614 422.123 149.701 422.702C149.362 422.627 149.01 422.638 148.676 422.734C148.342 422.83 148.038 423.008 147.79 423.252C144.548 423.686 143.303 426.145 142.435 428.749C142.406 428.979 142.292 429.19 142.115 429.34C141.938 429.49 141.711 429.568 141.479 429.559C140.747 429.086 140.142 428.44 139.718 427.678C139.294 426.916 139.064 426.062 139.047 425.19C139.047 421.834 138.179 418.275 141.711 415.96C145.532 415.7 147.385 418.448 149.412 420.995Z" fill="#B42B35"/>
<path d="M256.323 372.385L258.553 371.748L278.441 372.414L275.952 374.468C271.088 378.634 265.732 374.063 260.695 375.307C259.528 375.379 258.358 375.379 257.192 375.307C256.919 375.199 256.674 375.03 256.475 374.813C256.277 374.597 256.131 374.338 256.047 374.057C255.963 373.775 255.945 373.479 255.993 373.189C256.041 372.899 256.154 372.624 256.323 372.385Z" fill="#F83441"/>
<path d="M181.112 70.5998L176.596 64.1763C180.996 64.4077 185.657 64.1763 186.699 70.1657L181.112 70.5998Z" fill="#D1404F"/>
<path d="M132.389 26.4172L127.814 28.7029C131.26 22.3374 128.683 15.4511 129.609 8.88298C130.143 8.49431 130.805 8.32293 131.461 8.4035C132.117 8.48408 132.717 8.81067 133.141 9.31706C134.676 15.1039 136.557 20.8907 132.389 26.4172Z" fill="#040404"/>
<path d="M240.488 172.593L238.49 170.307C236.968 165.338 236.968 160.028 238.49 155.059L240.633 152.773L240.488 172.593Z" fill="#010101"/>
<path d="M265.153 404.965C263.445 402.621 260.927 403.113 258.553 403.026C258.23 402.755 257.971 402.416 257.793 402.034C257.615 401.651 257.522 401.235 257.522 400.813C257.522 400.391 257.615 399.975 257.793 399.592C257.971 399.21 258.23 398.871 258.553 398.599C262.259 398.889 266.919 397.384 267.556 403.431C267.18 404.647 266.485 405.312 265.153 404.965Z" fill="#FD2C38"/>
<path d="M112.327 445.213C111.516 444.46 108.129 446.167 110.097 442.84L116.408 440.641C116.611 441.451 116.843 442.261 117.074 443.071C117.595 446.572 119.506 450.218 116.032 453.314C113.398 451.231 116.495 446.572 112.327 445.213Z" fill="#B2373B"/>
<path d="M132.33 8.73827H129.609C128.277 2.9514 132.273 2.08331 136.586 1.62036V4.22452C135.457 6.01845 136.326 9.80884 132.33 8.73827Z" fill="#1A1A1A"/>
<path d="M46.465 407.829L41.9198 407.164C41.0802 406.961 40.7329 406.643 40.8776 406.18C41.0224 405.717 41.2539 405.399 41.4855 405.399C47.2755 406.064 53.4418 403.258 58.8555 407.164C58.8049 407.396 58.6914 407.611 58.5274 407.783C58.3634 407.956 58.1552 408.081 57.9254 408.143C57.6955 408.206 57.4529 408.204 57.2239 408.139C56.9949 408.073 56.7883 407.946 56.6265 407.771L46.465 407.829Z" fill="#E20B17"/>
<path d="M116.031 453.314L117.074 443.071C120.837 445.965 117.073 451.376 121.098 454.009C121.141 454.731 121.141 455.456 121.098 456.179L118.839 458.638C115.916 457.944 116.292 455.397 116.031 453.314Z" fill="#030504"/>
<path d="M229.748 119.701C229.429 122.595 230.732 126.096 227.547 128.382C224.652 125.98 222.713 123.318 225.289 119.528L228.184 117.589L229.748 119.701Z" fill="#242424"/>
<path d="M136.239 47.163L138.758 44.2695C139.796 45.4631 140.392 46.9775 140.444 48.5583C140.497 50.139 140.004 51.6898 139.047 52.9498C137.802 54.0783 141.363 58.216 136.471 57.0586L136.239 47.163Z" fill="#040203"/>
<path d="M59.1743 183.762H57.2057L56.5977 175.544C58.1031 174.3 55.5264 171.233 58.711 170.828C58.95 171.477 59.134 172.145 59.261 172.825C60.0118 174.553 60.392 176.419 60.377 178.302C60.3621 180.186 59.9524 182.046 59.1743 183.762Z" fill="black"/>
<path d="M112.326 68.1981L114.526 68.8925C109.923 72.7119 104.509 70.1079 99.501 70.8023C103.004 66.0281 108.012 68.7479 112.326 68.1981Z" fill="#1D1112"/>
<path d="M81.5519 247.996C83.7231 251.758 86.0102 255.49 80.915 258.818L81.5519 247.996Z" fill="#E60613"/>
<path d="M14.7351 372.269C12.8662 373.752 10.5501 374.56 8.16352 374.56C5.77697 374.56 3.46066 373.752 1.5918 372.269C5.92696 371.372 10.3999 371.372 14.7351 372.269Z" fill="#E80C18"/>
<path d="M205.372 436.098C205.69 432.713 207.775 431.787 210.815 432.163C210.815 435.635 209.859 438.529 205.488 438.442C204.156 437.747 204.127 436.966 205.372 436.098Z" fill="#F82F3D"/>
<path d="M89.8033 238.477C90.1796 244.813 85.3162 243.251 81.8132 243.772C81.4574 243.213 81.304 242.549 81.3789 241.891V240.82C84.2739 240.242 86.2424 236.451 89.8033 238.477Z" fill="#D03449"/>
<path d="M205.372 436.098C205.372 436.879 205.372 437.661 205.372 438.442C200.711 438.442 195.703 440.757 191.823 436.214L205.372 436.098Z" fill="#E90712"/>
<path d="M59.5219 135.065C63.0827 138.161 60.3035 140.852 59.1455 143.746C58.4507 144.758 57.7848 144.729 57.09 143.746C56.5399 140.534 58.3928 137.93 59.5219 135.065Z" fill="#171717"/>
<path d="M169.792 35.2998C167.129 33.4769 167.852 30.7281 167.852 28.1819C173.324 29.2525 171.297 32.3196 169.792 35.2998Z" fill="black"/>
<path d="M236.058 201.296C233.453 198.981 234.177 196.001 234.437 193.137C234.437 193.137 235.624 192.818 235.769 193.137C236.111 193.777 236.374 194.458 236.551 195.162L236.058 201.296Z" fill="#020202"/>
<path d="M152.19 0C152.19 0.694424 152.19 1.41773 152.19 2.11215C150.452 2.912 148.56 3.32628 146.646 3.32628C144.732 3.32628 142.841 2.912 141.103 2.11215C141.103 1.44666 141.103 0.781163 141.103 0.115674L152.19 0Z" fill="#010101"/>
<path d="M56.7129 407.771L58.9421 407.164C64.4716 405.428 63.6319 409.131 63.4003 412.343L56.7129 407.771Z" fill="#FB2E3D"/>
<path d="M57.0894 143.89H59.1449V152.571C56.0183 151.703 57.7554 149.099 56.6553 147.768L57.0894 143.89Z" fill="#030303"/>
<path d="M196.252 235.178V243.396C197.381 248.054 197.786 252.655 194.631 256.821C189.015 258.615 194.255 262.434 193.125 265.067C193.177 266.068 192.968 267.065 192.518 267.961L190.636 272.561C189.825 277.712 190.202 283.065 187.741 287.926L187.22 291.629C185.804 294.756 184.548 297.952 183.456 301.206L182.848 305.199C179.374 316.513 181.632 328.173 180.967 339.66C180.677 344.637 182.009 349.816 179.201 354.503C177.811 361.968 180.272 370.157 174.974 376.87C164.957 378.982 168.547 369.202 165.102 365.672C164.639 364.023 164.291 361.882 162.207 364.717C160.323 365.819 158.742 367.37 157.604 369.231C155.751 371.893 154.332 375.018 150.221 375.018C148.166 373.86 147.327 371.372 145.3 370.186C144.094 369.497 143.095 368.498 142.405 367.292C141.247 363.762 143.447 361.303 144.721 358.844C143.331 359.625 142.434 361.911 140.118 361.969C137.223 360.724 136.847 362.316 137.223 364.688C137.324 367.089 136.92 369.485 136.036 371.719C134.753 373.925 133.086 375.885 131.115 377.506C129.552 378.801 127.691 379.686 125.701 380.081C125.202 380.086 124.706 379.991 124.244 379.802C123.782 379.613 123.362 379.334 123.009 378.982L120.924 374.902C120.091 371.812 119.816 368.598 120.114 365.412C120.114 364.688 120.114 364.457 120.114 364.544C119.713 364.926 119.336 365.332 118.984 365.759C116.089 360.753 116.9 355.285 117.074 349.932C117.717 349.18 118.253 348.342 118.666 347.443C119.477 343.508 118.29 339.139 120.837 335.609C124.948 329.822 120.229 326.206 117.942 321.894C117.016 316.57 119.882 310.784 115.974 305.836C110.705 299.297 111.139 290.819 108.418 283.441C109.634 281.184 110.328 278.985 107.636 277.191C104.741 273.921 104.741 269.61 103.294 265.617C101.685 262.046 101.172 258.079 101.817 254.217C102.226 253.24 102.936 252.419 103.844 251.873C104.194 251.85 104.545 251.898 104.876 252.015C105.207 252.132 105.511 252.315 105.768 252.553C106.026 252.792 106.232 253.08 106.374 253.401C106.516 253.722 106.591 254.069 106.594 254.42C106.999 253.407 106.594 252.51 106.131 251.526C105.281 248.776 104.074 246.15 102.541 243.714C101.992 242.308 101.931 240.76 102.367 239.316C103.514 238.089 104.164 236.48 104.191 234.801C104.218 233.122 103.619 231.493 102.512 230.23C102.011 228.842 101.853 227.353 102.049 225.89C103.121 222.157 103.061 218.189 101.875 214.49C101.341 212.551 101.165 210.532 101.354 208.53C101.463 207.543 101.687 206.572 102.02 205.636C104.064 201.741 105.333 197.486 105.754 193.108C105.936 192.124 106.197 191.156 106.536 190.214C107.926 186.916 109.431 183.762 111.197 180.608C111.765 179.37 112.6 178.272 113.64 177.392C114.681 176.512 115.903 175.871 117.219 175.516C129.146 172.883 140.118 181.013 151.959 178.409C155.722 178.409 159.514 178.409 163.278 178.409C166.385 178.266 169.391 177.264 171.963 175.516C173.914 174.752 176.038 174.542 178.1 174.908C179.333 175.257 180.481 175.853 181.476 176.658C182.472 177.464 183.293 178.463 183.89 179.595C184.457 180.44 184.97 181.319 185.425 182.228C188.957 188.362 189.97 195.509 193.531 201.614C194.4 204.124 194.599 206.817 194.11 209.427C193.865 210.451 193.455 211.429 192.894 212.32C192.169 213.075 191.328 213.709 190.404 214.201C184.991 218.078 184.904 220.248 190.115 223.778C190.674 223.369 191.321 223.096 192.005 222.98C192.688 222.865 193.389 222.91 194.052 223.113C196.86 226.99 194.081 231.533 196.252 235.178Z" fill="#1E1E1E"/>
<path d="M103.699 206.273C103.841 206.571 103.894 206.904 103.853 207.232C103.812 207.56 103.678 207.87 103.467 208.125C100.867 212.609 100.041 217.905 101.151 222.968C101.325 224.574 101.325 226.194 101.151 227.8C101.151 231.735 102.715 236.075 98.6326 239.113C94.6375 240.068 96.6061 235.468 94.4638 234.658C90.9898 227.684 96.664 218.888 90.1213 212.523V212.175C89.0088 211.06 88.3051 209.602 88.1238 208.038C88.0306 206.528 88.187 205.012 88.5869 203.553C89.5133 198.981 91.6846 194.497 89.0212 189.809C88.5551 188.372 88.4457 186.842 88.7026 185.353C89.8896 181.418 89.2239 177.107 91.2214 173.346C91.5181 172.937 91.9047 172.602 92.3514 172.366C92.7981 172.13 93.2929 172 93.7979 171.986C94.6389 172.436 95.3093 173.15 95.7065 174.017C96.1038 174.885 96.2062 175.858 95.9981 176.789C97.0982 174.243 95.3033 173.259 93.9716 172.044C92.8302 170.45 92.0324 168.637 91.6287 166.72C91.2251 164.802 91.2243 162.822 91.6266 160.904C91.6266 156.911 90.9608 152.831 92.9004 149.041C94.8401 145.25 93.8847 140.65 95.2743 136.628C97.6193 131.275 99.5879 125.372 107.549 128.411L108.07 132.461C109.431 135.557 109.315 139.261 112.181 141.692C112.424 141.861 112.6 142.109 112.679 142.395C112.759 142.68 112.736 142.984 112.615 143.254C113.572 144.959 113.909 146.942 113.571 148.867L112.558 150.401C113.802 151.153 111.863 149.677 113.426 149.648C114.211 149.269 115.072 149.072 115.945 149.072C116.817 149.072 117.678 149.269 118.463 149.648C118.895 149.891 119.261 150.232 119.533 150.645C119.805 151.058 119.974 151.529 120.027 152.021C119.891 154.564 119.272 157.059 118.203 159.37C115.308 163.566 115.626 168.89 113.397 173.317C108.476 180.724 101.817 187.35 103.641 197.506C104.201 198.394 104.603 199.373 104.828 200.399C104.845 202.413 104.462 204.409 103.699 206.273Z" fill="#FD2C42"/>
<path d="M125.614 378.663C126.063 377.911 126.72 377.304 127.505 376.914C128.291 376.524 129.172 376.368 130.043 376.464C134.154 377.593 132.012 372.5 134.473 372.037V363.155C134.974 362.454 135.641 361.887 136.413 361.503C137.185 361.12 138.04 360.932 138.902 360.956C143.765 359.48 142.694 353.925 145.56 349.382C150.105 357.426 143.244 362.055 143.331 367.639C141.536 374.786 140.089 381.904 144.026 388.819C144.709 390.179 144.903 391.732 144.576 393.217C144.216 394.115 143.627 394.903 142.868 395.503C142.101 396.04 141.298 396.524 140.465 396.95C138.728 397.876 138.149 399.062 139.684 400.711C141.218 402.361 141.768 404.415 143.1 406.093C143.665 406.841 144.006 407.734 144.084 408.668C143.938 409.646 143.553 410.573 142.962 411.365C142.371 412.158 141.593 412.792 140.697 413.211C139.768 413.54 138.787 413.697 137.802 413.674C129.84 411.851 130.246 403.229 125.672 398.657C125.412 398.403 125.239 398.073 125.176 397.715C125.114 397.357 125.166 396.988 125.324 396.661C127.872 390.7 118.174 384.479 125.614 378.663Z" fill="#1F1E1F"/>
<path d="M81.3204 425.19C75.8488 424.09 75.9646 420.56 78.4254 417.146C80.8862 413.732 84.2155 409.739 88.3264 413.009C94.6376 417.927 100.225 416.915 106.941 412.083C107.578 422.615 102.425 425.306 94.4926 425.19C90.237 420.879 85.7498 424.524 81.3204 425.19Z" fill="#FC2E3F"/>
<path d="M125.557 398.599C133.692 399.352 130.884 411.157 138.99 411.938C139.692 412.707 140.156 413.663 140.325 414.69C140.495 415.717 140.363 416.771 139.945 417.725C139.192 419.664 138.729 421.776 136.702 422.904C135.167 424.122 133.264 424.785 131.303 424.785C129.343 424.785 127.44 424.122 125.904 422.904C128.278 414.861 124.978 406.73 125.557 398.599Z" fill="#211E1E"/>
<path d="M41.4857 405.399C41.4958 406.012 41.6443 406.616 41.92 407.164L36.9117 407.308C34.3641 405.081 30.6585 407.627 28.2267 405.254C27.3003 394.259 38.5907 401.579 41.5147 396.4C42.3892 396.494 43.2721 396.333 44.0577 395.938C44.8433 395.543 45.4983 394.93 45.9441 394.172C47.8441 392.696 50.1818 391.895 52.5881 391.895C54.9944 391.895 57.3321 392.696 59.2321 394.172C59.3359 395.044 59.1831 395.927 58.7923 396.713C58.4015 397.5 57.7898 398.155 57.0321 398.599C54.0545 397.953 50.9488 398.262 48.1574 399.483C45.3661 400.704 43.0312 402.774 41.4857 405.399Z" fill="#F92E40"/>
<path d="M89.8032 238.477C86.7055 238.187 84.766 242.064 81.4078 240.82C87.7189 235.757 80.3366 233.674 79.0918 230.259C80.3945 229.073 79.497 226.787 81.3208 225.832C86.3581 223.604 88.4136 228.379 91.685 230.259C94.9564 232.14 91.106 233.413 90.7586 234.976L89.8032 238.477Z" fill="#212121"/>
<path d="M59.1446 394.172H45.8564C50.8359 385.202 58.8551 390.787 65.4557 390.411C68.3507 390.237 67.5112 394.635 66.5848 395.821C63.4871 399.843 62.1554 392.754 59.1446 394.172Z" fill="#FD2C3C"/>
<path d="M118.985 349.874H117.016C116.65 335.175 116.293 320.476 115.945 305.778C121.996 310.755 117.653 317.525 118.84 323.312C125.18 332.166 118.551 341.02 118.985 349.874Z" fill="#0F1716"/>
<path d="M94.58 434.044C89.4269 440.352 84.2739 438.413 79.0918 434.044L81.3208 429.617C82.5122 428.474 84.0993 427.837 85.7503 427.837C87.4012 427.837 88.9882 428.474 90.1795 429.617C90.5599 430.623 91.1486 431.537 91.9069 432.3C92.6652 433.063 93.5761 433.657 94.58 434.044Z" fill="#F3323D"/>
<path d="M125.614 378.663C126.627 381.383 121.126 384.595 126.945 387.488C129.175 388.617 128.769 394.028 125.209 396.603C122.14 390.816 119.013 385.029 122.893 378.519L125.614 378.663Z" fill="#211E1E"/>
<path d="M90.2372 278.985C97.3975 284.907 97.3975 290.819 90.2372 296.721C88.6418 294.038 87.7998 290.974 87.7998 287.853C87.7998 284.732 88.6418 281.668 90.2372 278.985Z" fill="#FE2C3A"/>
<path d="M90.2377 278.985V296.779C81.35 292.728 87.69 284.858 85.8082 279.043H90.2377V278.985Z" fill="#F72F3E"/>
<path d="M19.2806 387.517C18.8463 391.018 20.7861 395.677 14.8513 396.4C12.8248 394.548 12.2457 391.742 10.4219 389.745C12.072 383.582 15.3723 384.479 19.2806 387.517Z" fill="#FC2D42"/>
<path d="M55.4971 370.388C57.0314 367.495 58.3921 364.312 62.0688 364.601C62.7774 365.328 63.3142 366.205 63.6398 367.166C63.9654 368.127 64.0715 369.149 63.9504 370.157C61.9529 373.455 58.7974 372.327 55.4971 370.388Z" fill="#F5303E"/>
<path d="M90.7584 234.976C91.0768 233.413 91.3664 231.851 91.6848 230.259C93.7692 224.154 91.6848 218.367 90.2373 212.523C99.4724 218.31 92.6691 227.366 94.5798 234.658L90.7584 234.976Z" fill="#B52934"/>
<path d="M103.091 252.568L103.265 265.675C97.8224 260.814 99.1831 254.333 99.0094 248.315C99.3128 247.98 99.7073 247.742 100.145 247.629C100.582 247.516 101.043 247.533 101.47 247.678C102.156 248.272 102.668 249.039 102.954 249.9C103.239 250.761 103.287 251.682 103.091 252.568Z" fill="#F13140"/>
<path d="M81.3203 425.19C85.7593 418.304 90.1888 418.304 94.6085 425.19H90.237C89.0456 426.332 87.4585 426.97 85.8075 426.97C84.1566 426.97 82.5696 426.332 81.3783 425.19H81.3203Z" fill="#F7303B"/>
<path d="M48.9834 383.959C55.005 380.11 58.537 380.544 62.9663 382.367C59.2897 386.968 55.4972 385.087 48.9834 383.959Z" fill="#FE2A3F"/>
<path d="M101.325 247.591L99.0091 248.112C95.2166 245.218 100.08 242.036 98.7484 239.026C98.98 234.657 99.1826 230.346 99.4142 225.861C99.6718 225.661 99.9793 225.534 100.304 225.495C100.628 225.456 100.957 225.506 101.255 225.64C101.552 225.774 101.808 225.987 101.994 226.255C102.18 226.524 102.289 226.838 102.309 227.163C103.766 233.942 103.427 240.984 101.325 247.591Z" fill="#924A4D"/>
<path d="M85.7496 278.985C79.9596 278.666 78.8884 274.702 79.0042 269.928C85.9812 269.35 86.0391 273.979 85.7786 278.869L85.7496 278.985Z" fill="#F7343E"/>
<path d="M81.3203 425.19H90.237V429.617H81.3783L81.3203 425.19Z" fill="#FC2E3F"/>
<path d="M41.428 394.172C37.954 393.738 33.2931 395.677 32.5693 389.745C36.0723 390.179 40.7043 388.241 41.428 394.172Z" fill="#F7303A"/>
<path d="M118.927 365.701L119.246 361.361L120.954 361.187V374.902C119.957 373.613 119.258 372.12 118.907 370.529C118.557 368.938 118.564 367.289 118.927 365.701Z" fill="#2F050B"/>
<path d="M10.4219 389.745C14.9092 389.948 14.8803 393.16 14.8514 396.4H12.6511C10.7115 394.577 8.27963 392.928 10.4219 389.745Z" fill="#F72F3B"/>
<path d="M125.499 424.901L125.672 429.588C126.263 430.179 126.594 430.98 126.594 431.816C126.594 432.651 126.263 433.453 125.672 434.044L120.49 433.755C121.009 430.287 122.793 427.133 125.499 424.901Z" fill="#251C18"/>
<path d="M107.607 277.133C110.734 274.616 109.837 278.001 110.3 279.072C111.168 281.068 111.776 283.18 108.389 283.383L107.607 277.133Z" fill="#0E1915"/>
<path d="M192.431 210.353L191.794 202.135C189.392 195.075 189.768 186.916 183.457 181.447H183.254C181.845 178.437 180.87 175.241 180.359 171.957C180.649 168.022 178.622 164.636 177.609 161.02C177.587 159.883 177.31 158.765 176.798 157.75C176.066 155.82 175.801 153.743 176.028 151.691C176.254 149.638 176.965 147.669 178.101 145.945L178.941 146.089C180.808 143.933 182.137 141.365 182.82 138.595C182.705 138.344 182.688 138.059 182.774 137.796C182.86 137.533 183.042 137.313 183.283 137.178C186.178 134.863 186.178 131.188 187.423 128.208C189.018 127.452 190.805 127.2 192.547 127.485C194.805 127.485 196.658 125.893 198.887 125.604C199.335 125.658 199.759 125.835 200.112 126.116C200.465 126.397 200.732 126.771 200.885 127.195L201.116 127.803C204.503 132.577 204.011 137.988 203.635 143.37C203.316 147.044 201.435 150.516 202.216 154.307C202.324 155.268 202.324 156.239 202.216 157.2C201.261 160.528 199.321 164.289 205.661 164.029C208.556 167.356 207.949 171.204 207.37 175.053C205.614 181.261 205.766 187.854 207.804 193.976C208.325 200.312 209.772 206.765 205.459 212.494H205.256C204.839 213.043 204.257 213.443 203.595 213.636C202.933 213.829 202.226 213.804 201.58 213.564C200.815 213.113 199.954 212.851 199.067 212.801C198.181 212.75 197.295 212.913 196.484 213.275C195.571 213.349 194.662 213.096 193.919 212.56C193.176 212.025 192.649 211.242 192.431 210.353Z" fill="#F92D3D"/>
<path d="M177.87 159.139L178.941 161.627C180.926 165.203 181.533 169.381 180.649 173.374C180.333 174.531 179.64 175.549 178.68 176.268L172.253 177.367C171.339 177.971 170.247 178.246 169.156 178.149C163.858 177.107 159.602 174.995 159.081 168.832C159.096 167.993 159.281 167.165 159.624 166.4C159.967 165.634 160.462 164.945 161.078 164.376C166.521 163.768 172.051 163.334 176.538 159.544L177.87 159.139Z" fill="#14AEC6"/>
<path d="M94.3187 135.065C95.289 132.7 95.4018 130.069 94.6373 127.629C91.945 123 95.6505 121.379 98.5165 119.325C105.783 114.551 106.738 115.477 107.52 128.411C101.412 128.411 99.6745 133.561 96.6927 137.293C96.3948 137.64 95.9808 137.867 95.5279 137.931C95.075 137.995 94.6143 137.892 94.232 137.641C93.9693 137.258 93.8359 136.802 93.8516 136.339C93.8672 135.875 94.0309 135.429 94.3187 135.065Z" fill="#F32F3F"/>
<path d="M118.753 152.629C118.922 151.922 118.818 151.179 118.464 150.545C118.25 150.393 118.089 150.176 118.006 149.926C117.923 149.677 117.921 149.407 118.001 149.156C118.174 148.694 118.348 148.462 118.522 148.462C120.954 148.115 123.327 148.462 125.354 145.916C128.249 142.473 128.51 142.791 130.044 148.317C131.4 149.969 132.292 151.952 132.628 154.062C132.964 156.173 132.731 158.334 131.955 160.325C131.349 161.979 130.234 163.397 128.77 164.376C124.92 165.996 122.546 164.376 120.809 160.962C120.398 158.124 119.71 155.332 118.753 152.629Z" fill="#201D1B"/>
<path d="M143.332 73.0012C143.187 67.8509 145.098 64.9285 150.54 67.2143C157.43 70.1077 154.362 75.0555 152.191 79.5114C151.919 79.829 151.581 80.0841 151.201 80.259C150.822 80.4338 150.408 80.5244 149.99 80.5244C149.572 80.5244 149.159 80.4338 148.779 80.259C148.399 80.0841 148.062 79.829 147.79 79.5114C143.274 79.4535 143.303 76.2129 143.332 73.0012Z" fill="#221D1D"/>
<path d="M138.902 141.662C144.692 139.984 149.961 141.662 158.617 143.022C150.222 146.552 143.824 146.871 138.902 150.516C138.316 149.938 137.85 149.248 137.532 148.488C137.214 147.728 137.051 146.913 137.051 146.089C137.051 145.266 137.214 144.45 137.532 143.69C137.85 142.93 138.316 142.241 138.902 141.662Z" fill="#221C1D"/>
<path d="M138.903 141.663V150.517C135.11 153.41 138.208 159.197 134.618 162.09C133.884 162.471 133.049 162.613 132.23 162.499C131.41 162.385 130.647 162.02 130.044 161.454V148.202C135.139 148.954 133.807 141.026 138.903 141.663Z" fill="#1B1F21"/>
<path d="M196.513 104.019V110.674C196.241 110.991 195.904 111.246 195.524 111.421C195.144 111.596 194.731 111.687 194.313 111.687C193.895 111.687 193.481 111.596 193.102 111.421C192.722 111.246 192.384 110.991 192.113 110.674C183.283 107.78 194.139 104.887 192.113 101.762C191.476 100.691 192.634 97.6243 195.008 99.0421C196.224 99.6497 196.108 102.283 196.513 104.019Z" fill="#1E201E"/>
<path d="M136.558 80.7847C138.874 85.0669 140.437 89.0311 136.558 92.1271C135.081 93.2844 131.868 93.1107 131.723 91.693C131.376 87.4686 135.921 85.038 136.558 80.7847Z" fill="#221D1D"/>
<path d="M147.79 79.772H156.649C157.779 80.9694 158.408 82.5531 158.408 84.199C158.408 85.8449 157.779 87.4285 156.649 88.6259C156.186 91.5193 155.722 94.2102 152.191 90.8249C150.247 88.9725 148.743 86.7084 147.79 84.199V79.772Z" fill="#19211D"/>
<path d="M161.078 164.289V168.195C155.549 172.796 148.948 171.089 142.695 171.262C140.164 171.306 137.637 171.044 135.168 170.481C133.964 170.105 132.87 169.44 131.984 168.542C131.733 167.967 131.676 167.325 131.823 166.714C131.969 166.104 132.31 165.557 132.794 165.157C136.529 162.9 139.945 164.087 143.332 166.025C149.383 167.096 155.173 165.244 161.078 164.289Z" fill="#3BA4B9"/>
<path d="M98.5168 119.325C98.5168 122.71 93.5375 123.752 94.6376 127.629L92.3215 127.919C91.2566 127.643 90.3012 127.049 89.5823 126.217C88.8634 125.385 88.4153 124.353 88.2975 123.26C88.0743 122.197 88.1361 121.094 88.4767 120.063C88.8173 119.031 89.4246 118.108 90.2371 117.387C93.798 114.493 96.3456 116.084 98.5168 119.325Z" fill="#232423"/>
<path d="M198.684 126.27C198.187 127.597 197.278 128.731 196.091 129.507C194.904 130.282 193.5 130.658 192.083 130.581C189.912 127.948 190.028 124.591 189.188 121.495C189.279 120.776 189.474 120.075 189.768 119.412C190.184 119.003 190.679 118.682 191.223 118.469C191.766 118.255 192.347 118.154 192.931 118.17C193.515 118.186 194.089 118.32 194.62 118.563C195.151 118.806 195.627 119.154 196.021 119.586L198.771 123.81C199.292 124.418 199.466 124.967 199.205 125.488C198.945 126.009 198.887 126.27 198.684 126.27Z" fill="#FE3032"/>
<path d="M90.2371 123.955L92.3794 127.919C88.6448 130.32 89.4843 136.801 83.6943 137.409C84.3891 132.924 85.1129 128.439 85.8366 123.955C86.1084 123.637 86.4458 123.382 86.8256 123.207C87.2054 123.032 87.6187 122.942 88.0368 122.942C88.455 122.942 88.8683 123.032 89.2481 123.207C89.6279 123.382 89.9653 123.637 90.2371 123.955Z" fill="#172824"/>
<path d="M116.292 68.1981C116.579 67.1457 117.145 66.1901 117.93 65.4315C118.714 64.6729 119.688 64.1394 120.75 63.887C122.95 66.4621 126.338 67.1854 129.899 68.4874C125.932 72.0463 122.082 70.2236 118.666 70.918L116.292 68.1981Z" fill="#F52A29"/>
<path d="M174.713 158.994C166.723 154.857 167.736 150.574 174.453 146.176C175.804 148.029 176.553 150.252 176.6 152.544C176.647 154.836 175.988 157.088 174.713 158.994Z" fill="#2C1A1A"/>
<path d="M143.708 134.284C148.311 132.433 151.843 132.056 158.038 135.876C151.554 137.149 147.964 138.538 143.708 134.284Z" fill="#231B1F"/>
<path d="M205.372 97.3642C204.243 100.605 209.772 102.775 207.253 105.581C205.719 107.289 202.621 106.421 200.942 104.019V97.3642C201.214 97.0416 201.553 96.7822 201.936 96.6043C202.318 96.4263 202.735 96.3342 203.157 96.3342C203.579 96.3342 203.996 96.4263 204.378 96.6043C204.761 96.7822 205.1 97.0416 205.372 97.3642Z" fill="#1A1F1D"/>
<path d="M147.79 84.083C152.277 84.2855 152.248 87.4974 152.191 90.7091C148.919 90.304 145.677 89.7252 144.49 86.0505C144.403 85.7612 146.632 84.7485 147.79 84.083Z" fill="#211B23"/>
<path d="M81.1176 152.802C82.2613 160.097 82.2613 167.526 81.1176 174.821L79.0912 172.68C78.395 171.732 78.0195 170.587 78.0195 169.411C78.0195 168.234 78.395 167.089 79.0912 166.141C79.8729 161.714 77.3251 156.737 81.1176 152.802Z" fill="#020101"/>
<path d="M134.474 161.569C135.429 157.663 131.81 151.934 138.903 150.516V161.598C138.298 162.156 137.505 162.463 136.682 162.457C135.86 162.452 135.071 162.135 134.474 161.569Z" fill="#211C19"/>
<path d="M156.648 88.4523V79.772H161.049C160.644 83.1284 162.612 87.7868 156.648 88.4523Z" fill="#241B1B"/>
<path d="M205.372 97.3642H200.942C201.261 94.2971 199.929 90.825 203.142 88.5103C203.901 88.9559 204.514 89.6105 204.909 90.3956C205.305 91.1808 205.465 92.0631 205.372 92.9371V97.3642Z" fill="#231E22"/>
<path d="M90.2369 123.955H85.8075C86.9944 121.524 82.9125 115.535 90.2369 117.3V123.955Z" fill="#241B1F"/>
<path d="M82.0736 208.732L85.8371 207.98C86.1226 207.689 86.4663 207.462 86.8458 207.313C87.2253 207.164 87.632 207.097 88.0392 207.116C88.4464 207.136 88.8451 207.24 89.209 207.424C89.5728 207.608 89.8936 207.866 90.1506 208.183C90.1506 209.514 90.1506 210.845 90.1506 212.176H81.8419C80.3076 210.816 79.2365 209.6 82.0736 208.732Z" fill="#C64955"/>
<path d="M81.3209 225.832C81.4145 226.706 81.2541 227.589 80.8587 228.374C80.4633 229.159 79.85 229.814 79.0919 230.259C77.2681 227.019 76.4574 223.026 72.4912 221.377C78.6576 216.747 78.0785 224.935 81.3209 225.832Z" fill="#191B1B"/>
<path d="M125.614 84.0832C125.657 84.7045 125.556 85.3273 125.32 85.9033C125.083 86.4793 124.716 86.9929 124.249 87.4044C123.781 87.8158 123.225 88.1141 122.623 88.2757C122.021 88.4374 121.391 88.4583 120.779 88.3367C119.332 88.3367 117.595 87.729 117.884 86.0797C118.058 85.2117 119.969 84.7198 121.098 84.0832C121.369 83.7453 121.713 83.4726 122.104 83.2852C122.495 83.0978 122.923 83.0005 123.356 83.0005C123.79 83.0005 124.217 83.0978 124.608 83.2852C124.999 83.4726 125.343 83.7453 125.614 84.0832Z" fill="#17221E"/>
<path d="M189.304 121.495C193.125 123.636 191.793 127.282 192.199 130.581L187.625 128.179C187.683 125.835 186.872 123.173 189.304 121.495Z" fill="#F52F3C"/>
<path d="M167.591 75.1713L178.593 74.7373C178.593 75.6343 178.737 76.5313 178.795 77.4282C174.525 79.1069 169.777 79.1069 165.507 77.4282H163.307C162.988 73.3485 165.131 73.9849 167.591 75.1713Z" fill="#15141A"/>
<path d="M82.0734 208.732C82.0734 209.832 81.8708 210.931 81.7839 212.06C80.4522 213.883 78.4258 215.676 76.573 213.912C73.3016 210.729 78.7152 210.526 79.0337 208.443L82.0734 208.732Z" fill="#2A292A"/>
<path d="M112.153 141.691C106.189 140.65 108.274 136.049 108.042 132.461C109.381 133.589 110.446 135.006 111.158 136.604C111.87 138.203 112.211 139.942 112.153 141.691Z" fill="#F32F3F"/>
<path d="M187.51 128.266C187.278 131.796 189.247 136.31 183.37 137.235C183.298 135.519 183.636 133.811 184.356 132.251C185.076 130.691 186.157 129.325 187.51 128.266Z" fill="#F52F3C"/>
<path d="M78.9761 166.141C78.9761 168.311 78.9761 170.481 78.9761 172.68C77.847 173.519 76.4285 175.313 75.6758 175.053C74.0256 174.532 74.7204 172.622 75.3284 171.494C76.4462 169.645 77.6639 167.858 78.9761 166.141Z" fill="#282828"/>
<path d="M192.113 110.674H196.513C196.513 113.018 196.369 115.361 196.311 117.705C195.113 117.832 193.903 117.667 192.783 117.223C191.664 116.78 190.669 116.071 189.884 115.159L192.113 110.674Z" fill="#37181C"/>
<path d="M125.614 84.083H121.185C121.59 79.7139 124.311 79.2221 127.843 80.0323L125.614 84.083Z" fill="#231A20"/>
<path d="M165.508 77.4282H178.796C176.964 79.0513 174.6 79.9474 172.152 79.9474C169.703 79.9474 167.34 79.0513 165.508 77.4282Z" fill="#211F25"/>
<path d="M134.473 161.569H138.903L141.19 163.826C138.497 165.707 135.4 164.492 132.505 164.926C131.659 165.227 130.736 165.23 129.889 164.936C129.041 164.641 128.32 164.066 127.844 163.305C128.568 162.727 129.291 162.148 129.986 161.54L134.473 161.569Z" fill="#130508"/>
<path d="M177.87 159.139L177.262 159.486H176.538L176.075 158.907C175.016 154.732 175.136 150.345 176.422 146.234L178.188 146.032C178.101 150.372 177.985 154.741 177.87 159.139Z" fill="#2C1A1A"/>
<path d="M176.422 146.321L176.074 158.994H175.379H174.714L174.453 146.176C175.112 146.181 175.769 146.229 176.422 146.321Z" fill="#380106"/>
<path d="M118.521 148.462C118.738 149.139 118.738 149.868 118.521 150.545H112.384L112.644 143.283L118.521 148.462Z" fill="#F32F3F"/>
<path d="M182.877 138.653C183.195 141.981 183.832 145.482 178.998 146.147C178.419 142.675 180.764 140.708 182.877 138.653Z" fill="#F52F3C"/>
<path d="M59.1738 183.762V172.767C59.9354 173.466 60.5434 174.316 60.9594 175.262C61.3753 176.208 61.59 177.231 61.59 178.264C61.59 179.298 61.3753 180.32 60.9594 181.267C60.5434 182.213 59.9354 183.063 59.1738 183.762Z" fill="#2C2C2C"/>
<path d="M132.071 164.202L141.19 163.855L143.303 166.025H132.418C131.897 165.707 131.665 165.36 131.752 164.926C131.839 164.492 131.926 164.202 132.071 164.202Z" fill="#0E778B"/>
<path d="M119.188 74.853L130.131 75.4317C126.165 78.2962 122.488 78.817 119.188 74.853Z" fill="#0E1B14"/>
<path d="M79.4098 184.225L78.657 192.616C76.6595 189.549 74.9225 186.626 79.4098 184.225Z" fill="#020205"/>
<path d="M189.884 115.158C192.779 114.377 194.284 116.547 196.311 117.705C196.428 118.336 196.368 118.987 196.137 119.586L189.884 119.412V115.158Z" fill="#B24150"/>
<path d="M165.508 363.155C167.01 363.804 168.257 364.929 169.058 366.356C169.858 367.783 170.167 369.434 169.937 371.054C169.828 371.777 169.877 372.517 170.083 373.219C170.288 373.922 170.644 374.571 171.127 375.122C171.609 375.673 172.206 376.112 172.875 376.409C173.545 376.706 174.271 376.853 175.003 376.841C170.748 382.222 177.609 389.34 172.282 394.577C171.993 394.346 171.472 394.056 171.5 393.854C171.674 392.812 170.864 392.61 170.892 393.16C170.889 398.614 169.19 403.933 166.029 408.379C164.647 409.235 163.052 409.686 161.426 409.681C159.482 409.464 157.606 408.835 155.924 407.838C154.242 406.84 152.792 405.496 151.67 403.894C151.048 403.01 150.57 402.034 150.251 401.001C149.812 397.364 149.184 393.752 148.369 390.179C148.085 389.164 147.872 388.129 147.732 387.083C147.432 384.999 147.54 382.876 148.051 380.834C148.368 379.851 148.869 378.938 149.527 378.143C154.912 376.609 154.854 371.459 156.62 367.524C156.562 366.924 156.637 366.319 156.84 365.752C157.044 365.185 157.37 364.67 157.797 364.244C158.223 363.818 158.738 363.491 159.306 363.288C159.873 363.085 160.478 363.009 161.078 363.068C162.613 366.742 164.031 366.627 165.508 363.155Z" fill="#1D1E1E"/>
<path d="M179.23 354.417C179.23 341.685 179.056 328.926 179.23 316.194C179.03 312.157 180.376 308.195 182.993 305.113L183.254 314.487C180.214 327.623 184.209 341.136 181.111 354.272L179.23 354.417Z" fill="#C72D3B"/>
<path d="M180.996 354.272C182.327 341.049 178.303 327.508 183.138 314.487C182.038 327.71 185.772 341.223 180.996 354.272Z" fill="#DF2B36"/>
<path d="M192.431 257.139C196.05 253.204 193.212 247.504 196.194 243.396L196.773 243.685C197.664 244.149 198.407 244.853 198.919 245.717C199.431 246.581 199.69 247.571 199.668 248.575C199.732 251.592 198.704 254.53 196.773 256.85C196.455 260.93 199.292 266.225 192.575 267.874L191.91 265.617C190.925 262.724 189.999 259.801 192.431 257.139Z" fill="#EC2C3C"/>
<path d="M165.508 407.482C168.054 401.7 170.155 395.732 171.79 389.63L172.311 394.52C171.384 398.86 170.487 403.2 169.589 407.569C166.694 411.591 172.485 418.361 165.363 421.052C164.05 419.734 163.223 418.011 163.018 416.162C162.755 414.622 162.842 413.041 163.273 411.539C163.704 410.036 164.467 408.649 165.508 407.482Z" fill="#1D1915"/>
<path d="M200.942 212.523H205.227C203.548 220.653 202.332 228.784 205.632 236.856C203.114 238.274 202.187 236.133 200.942 234.744C199.032 228.089 201.753 221.434 200.942 214.779C200.733 214.597 200.581 214.358 200.504 214.091C200.427 213.824 200.429 213.541 200.508 213.275C200.595 212.87 200.769 212.523 200.942 212.523Z" fill="#E22F3C"/>
<path d="M192.431 210.353L196.513 212.552C196.831 212.823 197.086 213.16 197.261 213.54C197.436 213.92 197.526 214.333 197.526 214.751C197.526 215.169 197.436 215.581 197.261 215.961C197.086 216.341 196.831 216.678 196.513 216.949C196.513 223.026 196.31 229.102 196.194 235.178C194.92 231.214 193.618 227.279 192.315 223.315C188.696 219.959 189.217 216.313 191.649 212.552L192.431 210.353Z" fill="#E22F3C"/>
<path d="M178.796 425.19C172.861 424.467 174.8 419.808 174.366 416.336C184.267 415.063 181.806 419.982 178.796 425.19Z" fill="#FA2E37"/>
<path d="M192.286 279.043H196.513C197.656 280.233 198.294 281.82 198.294 283.47C198.294 285.12 197.656 286.706 196.513 287.897C196.079 289.401 196.05 292.121 193.618 290.935C190.723 289.459 192.402 286.045 191.939 283.499C191.631 283.202 191.392 282.842 191.24 282.442C191.088 282.043 191.026 281.615 191.06 281.189C191.093 280.763 191.22 280.349 191.432 279.978C191.644 279.607 191.936 279.288 192.286 279.043Z" fill="#FE2C3A"/>
<path d="M209.801 420.763C207.543 423.656 207.977 431.903 200.943 425.19C200.62 424.918 200.36 424.579 200.182 424.197C200.004 423.815 199.912 423.398 199.912 422.976C199.912 422.555 200.004 422.138 200.182 421.756C200.36 421.373 200.62 421.035 200.943 420.763H209.801Z" fill="#F82F3D"/>
<path d="M192.287 279.043L192.084 283.441C190.637 284.916 189.189 286.334 187.771 287.839C187.973 282.602 187.047 277.133 190.666 272.475C192.663 274.269 191.997 276.757 192.287 279.043Z" fill="#E12D3D"/>
<path d="M165.508 420.763C170.053 417.349 165.508 411.099 169.561 407.569L169.908 416.249C170.053 419.143 170.226 422.036 170.371 424.929C169.767 425.6 168.948 426.039 168.055 426.171C167.162 426.304 166.251 426.12 165.479 425.653C164.905 424.966 164.593 424.098 164.599 423.203C164.604 422.308 164.926 421.443 165.508 420.763Z" fill="#221D1D"/>
<path d="M232.092 394.172C229.197 393.102 226.302 396.458 223.234 394.172C222.911 393.901 222.651 393.562 222.473 393.18C222.295 392.797 222.203 392.381 222.203 391.959C222.203 391.537 222.295 391.121 222.473 390.738C222.651 390.356 222.911 390.017 223.234 389.745H232.092C232.391 390.032 232.628 390.375 232.791 390.756C232.953 391.136 233.037 391.545 233.037 391.959C233.037 392.372 232.953 392.782 232.791 393.162C232.628 393.542 232.391 393.886 232.092 394.172Z" fill="#FD2C3E"/>
<path d="M192.084 425.19C191.462 425.233 190.839 425.132 190.263 424.896C189.686 424.659 189.172 424.293 188.761 423.825C188.349 423.358 188.051 422.802 187.889 422.201C187.727 421.599 187.706 420.969 187.828 420.358C187.828 418.911 188.436 417.175 190.086 417.465C190.926 417.667 191.418 419.577 192.084 420.705C192.417 420.976 192.685 421.318 192.869 421.706C193.053 422.094 193.149 422.518 193.149 422.947C193.149 423.377 193.053 423.801 192.869 424.189C192.685 424.577 192.417 424.919 192.084 425.19Z" fill="#F62E3F"/>
<path d="M192.084 425.19V420.763H200.943V425.19H192.084Z" fill="#F92F37"/>
<path d="M196.657 256.85C196.657 253.783 195.557 250.369 198.713 247.996C200.566 249.096 201.608 251.063 203.171 252.423C203.142 256.821 199.871 256.879 196.657 256.85Z" fill="#F92D3D"/>
<path d="M196.513 287.838V278.985C197.145 278.955 197.776 279.07 198.358 279.32C198.939 279.57 199.456 279.949 199.869 280.429C200.282 280.909 200.58 281.476 200.741 282.088C200.902 282.7 200.921 283.341 200.797 283.961C200.624 286.652 198.887 287.578 196.513 287.838Z" fill="#F6303F"/>
<path d="M225.318 367.582H232.093V372.009C229.545 370.851 223.553 374.902 225.318 367.582Z" fill="#F5313C"/>
<path d="M232.093 394.172V385.318H236.522C235.972 388.79 237.883 393.449 232.093 394.172Z" fill="#F82F3D"/>
<path d="M223.089 389.745V394.172C220.513 393.622 217.299 395.474 215.389 391.973C217.241 388.443 220.513 390.295 223.089 389.745Z" fill="#F82F3D"/>
<path d="M221.815 382.743C221.815 384.885 220.31 384.913 218.92 385.087C217.53 385.261 215.793 385.087 215.446 383.38C215.099 381.673 216.894 381.239 218.341 381.065C219.025 380.9 219.745 380.977 220.379 381.283C221.012 381.589 221.52 382.105 221.815 382.743Z" fill="#F82F3D"/>
<path d="M200.943 234.715L205.632 236.828L207.746 238.911L205.575 241.399C201.087 241.226 200.856 238.072 200.943 234.715Z" fill="#F92D3D"/>
<path d="M196.57 216.949V212.552C196.889 210.96 196.86 208.732 199.263 209.253C200.015 209.253 200.421 211.394 201 212.523V214.751L196.57 216.949Z" fill="#FC2C34"/>
<path d="M213.94 299.007L214.606 311.478C214.766 311.663 214.878 311.884 214.932 312.122C214.985 312.36 214.979 312.608 214.913 312.843C214.847 313.079 214.723 313.294 214.553 313.47C214.384 313.645 214.173 313.776 213.94 313.851C212.487 311.648 211.713 309.067 211.713 306.429C211.713 303.791 212.487 301.21 213.94 299.007Z" fill="#E80A17"/>
<path d="M203.142 252.423C202.545 252.481 201.942 252.406 201.377 252.205C200.812 252.003 200.298 251.679 199.872 251.256C199.447 250.834 199.119 250.322 198.914 249.759C198.709 249.195 198.63 248.594 198.684 247.996C198.047 246.55 197.381 245.103 196.744 243.685C201.955 244.379 202.361 248.546 203.142 252.423Z" fill="#F2313F"/>
<path d="M204.503 267.353C205.661 269.871 206.008 272.793 203.634 273.14C200.334 273.777 201.811 271.057 202.447 269.552C203.031 268.731 203.722 267.991 204.503 267.353Z" fill="#F92D3D"/>
<path d="M213.941 313.851L214.578 311.478C216.654 314.754 217.486 318.665 216.923 322.502C211.277 321.229 215.678 316.484 213.941 313.851Z" fill="#BE262D"/>
<path d="M187.741 296.779C188.89 297.682 189.826 298.826 190.482 300.132C191.137 301.437 191.496 302.871 191.534 304.331C186.873 302.798 187.973 299.528 187.654 296.866L187.741 296.779Z" fill="#FB2936"/>
<path d="M183.486 301.119C183.071 299.33 183.208 297.457 183.88 295.747C184.552 294.037 185.727 292.571 187.249 291.542C187.423 293.249 187.568 294.985 187.741 296.721L183.486 301.119Z" fill="#E12D3D"/>
<path d="M225.289 119.528L227.547 128.382C222.77 132.49 221.352 127.571 219.586 125.083C218.863 123.806 218.635 122.307 218.944 120.872C219.254 119.437 220.08 118.166 221.265 117.3C222.857 115.795 223.668 119.152 225.289 119.528Z" fill="#1C1C1C"/>
<path d="M205.662 187.784C209.396 194.815 206.298 203.148 209.946 210.208L205.43 212.581C205.43 205.608 205.169 198.663 205.025 191.69C204.243 190.243 204.04 188.855 205.662 187.784Z" fill="#B52F37"/>
<path d="M214.722 170.394C213.781 164.558 213.781 158.609 214.722 152.773C216.372 152.571 217.212 153.034 216.488 154.828L216.691 157.345C218.108 160.783 218.108 164.641 216.691 168.079L214.722 170.394Z" fill="#030303"/>
<path d="M219.065 203.64L218.486 195.162L219.615 190.446H220.947V201.354C222.047 203.669 220.831 203.9 219.065 203.64Z" fill="#050505"/>
<path d="M238.519 155.001C238.519 160.094 238.519 165.186 238.519 170.25C236.952 168.016 236.111 165.354 236.111 162.625C236.111 159.897 236.952 157.235 238.519 155.001Z" fill="#313131"/>
<path d="M219.065 203.64L220.946 201.441C221.499 201.762 221.969 202.208 222.319 202.743C222.668 203.278 222.889 203.887 222.962 204.522C223.035 205.157 222.959 205.8 222.74 206.4C222.52 207 222.164 207.541 221.699 207.98C220.136 210.005 218.312 210.555 216.459 208.182L219.065 203.64Z" fill="#131313"/>
<path d="M218.66 139.463C220.404 141.666 221.354 144.394 221.354 147.203C221.354 150.013 220.404 152.74 218.66 154.943C216.401 151.616 218.168 147.97 217.704 144.498C217.504 143.639 217.486 142.747 217.65 141.88C217.815 141.013 218.158 140.19 218.66 139.463Z" fill="#292929"/>
<path d="M216.633 185.903L216.025 177.772C216.218 177.096 216.49 176.446 216.836 175.834C217.473 174.879 218.515 174.445 218.486 176.065C218.428 179.422 219.905 183.154 216.633 185.903Z" fill="#010101"/>
<path d="M218.66 139.463V143.919C217.994 144.903 217.357 144.845 216.72 143.919C214.925 141.026 211.277 139.29 211.798 135.239L218.66 139.463Z" fill="#0E0E0E"/>
<path d="M216.605 143.89H218.573C218.573 147.565 218.573 151.24 218.573 154.914H216.431L214.665 152.86L216.605 143.89Z" fill="#020202"/>
<path d="M216.604 168.08V157.316C217.333 158.01 217.913 158.845 218.31 159.77C218.706 160.696 218.91 161.691 218.91 162.698C218.91 163.704 218.706 164.7 218.31 165.625C217.913 166.55 217.333 167.385 216.604 168.08Z" fill="#2D2D2D"/>
<path d="M198.685 126.269C198.685 125.459 198.685 124.649 198.887 123.81C200.595 124.302 201.435 125.314 200.972 127.137L198.685 126.269Z" fill="#FE677D"/>
<path d="M167.591 75.1713C166.738 75.1157 165.887 75.2973 165.13 75.6956C164.374 76.0939 163.743 76.6935 163.307 77.4282C163.596 71.4678 153.666 66.9251 160.817 60.0676L167.591 75.1713Z" fill="#221D1D"/>
<path d="M132.331 8.73825L136.703 4.36914C139.279 6.56815 135.921 8.73828 136.703 10.9373C133.171 16.1165 139.598 21.2958 136.703 26.475H132.418C132.399 20.5724 132.37 14.6601 132.331 8.73825Z" fill="#2A2A2A"/>
<path d="M136.557 26.475C136.354 21.2957 131.867 16.1165 136.557 10.9373C137.396 14.6987 138.033 18.5469 139.134 22.2505C140.06 24.9414 139.452 26.3014 136.557 26.475Z" fill="#1B1B1B"/>
<path d="M139.047 53.0077C139.047 50.1143 138.874 47.2208 138.758 44.3274C146.545 46.9315 144.693 49.9117 139.047 53.0077Z" fill="#222222"/>
<path d="M141.132 2.17017H152.22C151.517 2.94143 150.661 3.55766 149.706 3.97927C148.752 4.40087 147.719 4.61856 146.676 4.61856C145.632 4.61856 144.6 4.40087 143.645 3.97927C142.691 3.55766 141.835 2.94143 141.132 2.17017Z" fill="#2F2F2F"/>
<path d="M136.702 422.962C136.6 422.097 136.747 421.22 137.127 420.436C137.506 419.652 138.102 418.992 138.844 418.535C141.102 420.04 138.844 423.251 141.16 424.698C141.16 426.319 141.363 427.939 141.478 429.559C140.494 430.514 138.931 432.453 138.583 432.279C134.617 429.877 137.57 426.058 136.702 422.962Z" fill="#2A2624"/>
<path d="M125.614 434.044C125.614 432.568 125.614 431.151 125.614 429.588C126.235 429.558 126.855 429.67 127.427 429.916C127.998 430.162 128.505 430.535 128.91 431.006C129.315 431.478 129.607 432.036 129.763 432.638C129.92 433.239 129.936 433.869 129.812 434.478C129.812 435.925 129.204 437.632 127.554 437.371C126.743 437.082 126.28 435.172 125.614 434.044Z" fill="#251B1C"/>
<path d="M258.553 398.599V403.026C254.644 404.647 253.892 407.887 254.123 411.707L249.925 410.52C250.562 406.643 254.5 400.914 245.293 402.737C242.717 403.258 241.125 401.869 240.98 399.091C240.835 395.561 242.601 395.012 245.844 395.156C252.386 395.417 255.079 391.829 254.123 385.405L255.513 384.422C256.343 384.17 257.235 384.218 258.034 384.556C258.833 384.894 259.488 385.502 259.884 386.273C260.521 387.577 260.736 389.048 260.497 390.479C260.258 391.911 259.578 393.232 258.553 394.259V398.599Z" fill="#F92E3D"/>
<path d="M256.324 372.385V374.237C256.773 376.133 256.809 378.105 256.429 380.017C256.05 381.929 255.263 383.737 254.123 385.318C248.333 392.841 242.312 383.293 236.377 385.318C239.272 379.879 248.536 378.23 245.381 369.462L256.324 372.385Z" fill="#F92E3D"/>
<path d="M28.1397 405.254C31.0347 405.572 34.5666 404.242 36.8247 407.309H25.9395L28.1397 405.254Z" fill="#FC3743"/>
<path d="M258.553 394.172V385.318C258.553 383.988 259.942 383.756 260.753 383.12C263.648 384.711 267.325 385.376 267.411 389.746L258.553 394.172Z" fill="#FE2A3F"/>
<path d="M260.753 383.119L258.553 385.318H254.123C253.652 381.484 254.423 377.6 256.324 374.237L258.9 374.497C259.45 374.989 259.566 375.423 259.305 375.799C259.045 376.175 258.842 376.291 258.611 376.291C258.611 378.808 258.147 381.441 260.753 383.119Z" fill="#FE2B43"/>
<path d="M258.611 376.291C258.605 375.681 258.703 375.074 258.9 374.497H275.952C276.158 375.133 276.266 375.796 276.27 376.465C274.995 377.334 273.493 377.811 271.949 377.836C270.406 377.862 268.889 377.436 267.585 376.609L258.611 376.291Z" fill="#CB151C"/>
<path d="M267.44 376.58L276.125 376.436C273.346 378.027 270.509 384.132 267.44 376.58Z" fill="#FB3347"/>
<path d="M165.507 420.763V425.19C165.946 425.623 166.294 426.139 166.531 426.708C166.769 427.276 166.891 427.887 166.891 428.503C166.891 429.119 166.769 429.729 166.531 430.298C166.294 430.866 165.946 431.382 165.507 431.816C164.498 432.207 163.582 432.806 162.819 433.573C162.056 434.341 161.463 435.26 161.078 436.272C161.686 438.76 160.47 439.165 158.414 438.528C155.346 434.709 157.517 429.848 156.069 425.797C155.579 424.264 155.489 422.63 155.809 421.052C156.938 418.607 158.813 416.581 161.165 415.265C161.894 414.972 162.694 414.903 163.463 415.068C164.232 415.233 164.934 415.624 165.478 416.191L165.507 420.763Z" fill="#1D1C1A"/>
<path d="M156.823 425.219C160.789 429.096 158.212 434.044 158.994 438.471C159.89 439.773 160.37 441.317 160.37 442.898C160.37 444.479 159.89 446.022 158.994 447.325C158.994 448.048 158.994 448.743 158.994 449.437H156.446C155.028 444.46 156.099 439.397 155.752 434.391C155.925 431.353 154.651 428.083 156.823 425.219Z" fill="#2C2B2A"/>
<path d="M165.508 431.816V425.19L170.371 424.987C171.587 425.421 172.253 426.145 171.848 427.476C168.953 429.935 170.227 433.262 169.937 436.156C168.939 435.777 168.03 435.196 167.268 434.449C166.505 433.702 165.906 432.806 165.508 431.816Z" fill="#1D1E21"/>
<path d="M158.849 447.238C158.849 444.345 158.849 441.451 158.849 438.384L161.049 436.185C163.828 440.641 163.423 444.345 158.849 447.238Z" fill="#202020"/>
<path d="M156.533 434.073C156.533 439.194 156.359 444.345 156.244 449.466C155.855 449.414 155.461 449.485 155.114 449.668C153.387 444.636 153.136 439.214 154.391 434.044C155.114 433.06 155.809 433.031 156.533 434.073Z" fill="#010303"/>
<path d="M151.786 400.943L152.567 403.142C155.462 408.929 156.997 414.426 151.988 419.837L149.412 421.11C146.14 421.11 143.419 420.329 143.274 416.307C141.653 415.352 139.945 414.455 140.785 412.054L143.043 407.569C142.586 407 142.283 406.324 142.161 405.605C142.04 404.886 142.104 404.148 142.348 403.46C143.812 400.899 146.174 398.971 148.977 398.05C150.801 398.05 151.207 399.525 151.786 400.943Z" fill="#F02E3D"/>
<path d="M151.988 419.721C152.191 414.137 152.365 408.582 152.567 403.026L161.078 407.482C162.165 408.667 162.768 410.215 162.768 411.822C162.768 413.429 162.165 414.978 161.078 416.162C161.131 416.766 161.051 417.373 160.845 417.943C160.638 418.512 160.31 419.03 159.883 419.46C159.455 419.889 158.94 420.221 158.371 420.431C157.803 420.641 157.195 420.725 156.591 420.676C156.482 420.962 156.292 421.21 156.046 421.391C155.799 421.571 155.505 421.677 155.2 421.695C154.894 421.714 154.59 421.644 154.324 421.494C154.057 421.344 153.839 421.12 153.696 420.85L151.988 419.721Z" fill="#221D1D"/>
<path d="M153.928 420.994L156.823 420.821C156.823 422.296 156.823 423.714 156.823 425.219L156.649 434.073H154.507L153.928 420.994Z" fill="#0A0408"/>
<path d="M140.784 411.938L143.273 416.191C140.378 418.506 142.087 421.978 141.16 424.698C138.091 423.512 139.22 420.734 138.844 418.535C138.468 416.336 138.844 414.137 138.989 411.938H140.784Z" fill="#2D0206"/>
<path d="M143.766 325.714L141.363 323.283C138.641 320.592 141.594 317.728 141.102 314.95C141.102 310.726 141.102 306.472 141.102 302.219C141.681 295.969 139.655 289.459 142.868 283.441L143.708 274.558C145.155 271.838 143.997 268.771 144.692 265.877C145.589 263.592 146.197 261.045 149.266 260.64C151.669 261.508 150.627 264.083 151.727 265.588L152.595 276.612C156.996 283.065 154.245 290.125 154.39 296.866C154.39 304.476 155.056 312.143 152.48 319.522C153.956 323.515 149.382 325.945 149.845 329.678C145.966 331.182 145.242 327.768 143.766 325.714Z" fill="#ED2C3C"/>
<path d="M132.07 164.202L132.418 165.967C132.418 166.72 132.418 167.443 132.273 168.195C131.781 169.613 127.756 170.365 131.636 172.593C135.515 174.821 139.945 174.04 144.171 174.185C148.398 174.329 151.959 174.185 155.751 174.387C157.495 174.558 159.168 175.165 160.615 176.152C161.034 176.543 161.339 177.04 161.497 177.59C161.656 178.141 161.661 178.724 161.512 179.277C158.617 181.563 154.796 179.451 151.727 181.129C139.597 182.489 128.307 178.236 116.727 175.863C112.587 171.696 115.482 166.951 115.627 162.408C116.987 160.557 118.145 158.271 121.156 159.515C123.038 161.396 124.311 164.289 127.814 163.363L132.07 164.202Z" fill="#19ABC4"/>
<path d="M118.984 349.874V323.312C125.643 322.733 126.569 327.189 125.382 331.992C123.79 338.011 121.156 343.884 118.984 349.874Z" fill="#1A2120"/>
<path d="M143.187 389.745C141.717 388.294 140.553 386.563 139.762 384.654C138.972 382.746 138.572 380.698 138.585 378.633C138.599 376.568 139.026 374.526 139.841 372.628C140.656 370.73 141.843 369.014 143.332 367.582H147.906C148.123 368.289 148.17 369.037 148.045 369.766C147.919 370.494 147.624 371.183 147.182 371.777C146.181 375.173 145.809 378.722 146.082 382.251C146.213 383.639 146.02 385.039 145.518 386.339C145.015 387.64 144.218 388.806 143.187 389.745Z" fill="#211E1E"/>
<path d="M191.91 227.916C185.628 229.739 184.18 225.254 183.399 220.856C182.617 216.458 183.399 211.973 189.883 212.552C192.634 217.413 189.305 223.055 191.91 227.916Z" fill="#1C201F"/>
<path d="M175.987 316.744V355.95H175.09V316.773L175.987 316.744Z" fill="#1C2425"/>
<path d="M143.274 316.773C142.319 318.827 140.379 320.621 141.363 323.225C137.438 310.289 137.328 296.496 141.045 283.499C143.419 289.604 141.653 295.998 142.203 302.219C142.695 307.051 141.103 312.057 143.274 316.773Z" fill="#280B0A"/>
<path d="M183.456 181.447C194.168 185.151 192.141 193.976 191.794 202.135C186.814 196.117 186.062 188.42 183.456 181.447Z" fill="#F12E3D"/>
<path d="M117.45 160.991C117.219 165.938 117.016 170.915 116.813 175.863L112.297 181.65L110.937 180.955C108.042 177.628 110.937 175.371 112.297 172.767C113.629 168.311 111.139 162.611 116.582 159.457C116.752 159.479 116.914 159.54 117.056 159.635C117.199 159.73 117.316 159.857 117.401 160.006C117.485 160.155 117.534 160.322 117.542 160.493C117.551 160.664 117.519 160.834 117.45 160.991Z" fill="#F32F3F"/>
<path d="M152.509 319.637C152.509 311.825 152.509 304.013 152.509 296.201C152.993 296.05 153.514 296.059 153.993 296.225C154.472 296.392 154.886 296.708 155.172 297.126C155.896 300.02 154.796 303.347 156.417 306.212C157.864 311.507 155.201 315.587 152.509 319.637Z" fill="#EB2D3C"/>
<path d="M156.446 306.212C153.869 303.492 154.448 300.078 154.39 296.779C152.711 290.26 152.711 283.421 154.39 276.902C157.748 274.847 155.982 278.204 156.619 279.014C158.21 283.278 158.21 287.972 156.619 292.237L156.446 306.212Z" fill="#270D09"/>
<path d="M134.473 185.961C142.347 181.36 150.627 184.688 158.791 184.659C152.248 186.424 145.271 185.614 138.931 188.189C138.063 188.204 137.205 188.01 136.428 187.622C135.652 187.234 134.981 186.664 134.473 185.961Z" fill="#281F20"/>
<path d="M165.508 363.155C164.957 367.148 166.723 371.546 163.278 376.146C159.833 371.546 161.599 367.148 161.078 363.155C162.612 364.515 164.031 355.661 165.508 363.155Z" fill="#221C20"/>
<path d="M143.766 325.714C145.821 327.074 147.848 328.462 149.874 329.851C152.508 333.526 150.627 336.506 148.253 340.065C144.866 335.465 144.634 330.459 143.766 325.714Z" fill="#6F3F41"/>
<path d="M101.325 247.591V226.122L102.338 225.167L103.67 225.456V230.173C104.736 231.407 105.322 232.984 105.322 234.614C105.322 236.245 104.736 237.821 103.67 239.055V243.511C104.707 244.772 105.29 246.344 105.327 247.976C105.363 249.607 104.851 251.204 103.873 252.51H103.062L101.325 247.591Z" fill="#480004"/>
<path d="M143.419 243.569C142.798 243.618 142.173 243.525 141.594 243.295C141.015 243.066 140.495 242.707 140.076 242.247C139.657 241.786 139.349 241.235 139.176 240.637C139.002 240.038 138.968 239.408 139.076 238.795C139.308 234.657 142.29 234.802 145.185 234.744L146.517 235.873C147.53 239.258 149.354 242.99 143.419 243.569Z" fill="#251E20"/>
<path d="M103.902 252.597C103.902 249.703 103.757 246.607 103.699 243.598C111.979 246.723 105.899 253.667 106.971 258.933L103.902 252.597Z" fill="#192322"/>
<path d="M134.473 372.009V384.421C128.335 383.033 130.854 378.982 130.043 376.436C129.979 375.839 130.05 375.235 130.25 374.669C130.45 374.103 130.774 373.588 131.199 373.164C131.624 372.739 132.138 372.415 132.705 372.215C133.271 372.015 133.875 371.945 134.473 372.009Z" fill="#211E1E"/>
<path d="M164.234 324.441C160.007 318.654 161.339 314.95 162.005 310.118C167.187 314.14 165.218 318.133 164.234 324.441Z" fill="#1A2120"/>
<path d="M121.184 274.558C128.046 278.985 128.075 283.441 121.184 287.868C119.747 285.946 118.97 283.612 118.97 281.213C118.97 278.814 119.747 276.479 121.184 274.558Z" fill="#1A201D"/>
<path d="M121.185 274.558V287.868C114.333 283.412 114.333 278.975 121.185 274.558Z" fill="#231B1E"/>
<path d="M145.677 369.839L147.906 367.668C150.366 369.26 149.903 371.835 150.164 374.179C150.708 374.805 151.007 375.606 151.007 376.436C151.007 377.265 150.708 378.066 150.164 378.692L149.672 381.094C149.091 381.6 148.368 381.916 147.602 381.999C146.836 382.082 146.063 381.928 145.387 381.557C144.754 380.724 144.409 379.709 144.403 378.663C144.895 375.77 143.447 372.558 145.677 369.839Z" fill="#533337"/>
<path d="M150.251 378.692C150.251 377.188 150.251 375.799 150.251 374.179C152.422 371.98 154.593 369.81 156.736 367.611C154.188 371.112 162.236 380.689 150.251 378.692Z" fill="#241A1A"/>
<path d="M150.048 228.031C158.154 231.214 154.42 236.423 152.335 241.341C150.251 240.039 149.903 237.696 148.977 235.555C148.61 234.777 148.328 233.962 148.137 233.124C147.942 232.181 148.018 231.203 148.356 230.302C148.694 229.4 149.281 228.613 150.048 228.031Z" fill="#272222"/>
<path d="M99.1248 221.55C96.6929 215.763 98.7484 211.597 103.467 208.24L103.757 215.04C103.757 215.503 103.757 215.937 103.554 216.371C102.859 218.657 103.351 222.042 99.1248 221.55Z" fill="#EB2D3B"/>
<path d="M127.67 362.142C125.614 361.563 125.006 359.769 124.456 358.091C123.646 355.661 125.035 354.561 127.351 354.822C129.667 355.082 130.246 357.021 129.986 358.959C129.783 360.435 129.725 362.026 127.67 362.142Z" fill="#1F1E1F"/>
<path d="M141.16 303.492C141.16 296.808 141.16 290.154 141.16 283.47H143.013C143.013 289.893 143.013 296.307 143.013 302.711C142.868 303.926 142.347 304.216 141.16 303.492Z" fill="#311C1D"/>
<path d="M154.419 276.901C154.419 283.518 154.419 290.144 154.419 296.779C153.762 296.746 153.125 296.547 152.566 296.201V276.67L154.419 276.901Z" fill="#53201F"/>
<path d="M140.726 259.628V274.095H139.626V259.396L140.726 259.628Z" fill="#1E2625"/>
<path d="M134.473 185.961C135.351 185.869 136.237 186.03 137.027 186.424C137.817 186.819 138.478 187.431 138.931 188.189C138.555 190.156 139.51 193.831 136.76 193.368C132.852 192.616 135.139 188.536 134.473 185.961Z" fill="#19211B"/>
<path d="M103.699 206.273L103.381 199.3C102.425 195.451 102.976 192.616 107.839 192.645C108.125 195.079 107.905 197.546 107.193 199.891C106.481 202.236 105.291 204.409 103.699 206.273Z" fill="#EB2D3B"/>
<path d="M150.048 228.031L149.874 234.744C149.624 235.032 149.315 235.263 148.968 235.422C148.621 235.58 148.244 235.662 147.863 235.662C147.481 235.662 147.104 235.58 146.757 235.422C146.41 235.263 146.101 235.032 145.851 234.744H145.185C146.777 232.516 142.666 226.122 150.048 228.031Z" fill="#5D373C"/>
<path d="M103.583 239.142C103.583 236.249 103.583 233.211 103.583 230.259C109.72 233.268 109.72 236.22 103.583 239.142Z" fill="#251C1E"/>
<path d="M145.851 234.686H149.875H150.222C150.641 235.385 150.898 236.169 150.973 236.981C151.048 237.792 150.94 238.61 150.656 239.374C149.325 241.891 150.657 246.578 145.33 245.768L143.419 243.482C146.777 241.312 145.069 237.667 145.851 234.686Z" fill="#8A3F44"/>
<path d="M149.7 239.345L150.222 234.773C152.682 236.422 152.046 239.027 152.335 241.341C152.19 245.219 152.045 249.125 151.93 252.915C151.401 253.012 150.855 252.97 150.348 252.792C149.84 252.614 149.388 252.308 149.035 251.902C148.487 250.951 148.142 249.897 148.021 248.806C148.366 245.618 148.927 242.457 149.7 239.345Z" fill="#440002"/>
<path d="M149.7 239.345L149.961 250.108C148.774 251.786 147.761 253.841 145.068 252.51C144.716 251.812 144.549 251.036 144.585 250.255C144.62 249.475 144.857 248.716 145.271 248.054C145.474 247.335 145.474 246.574 145.271 245.855L149.7 239.345Z" fill="#A8464C"/>
<path d="M156.186 255.23V269.205C153.204 263.505 155.086 259.165 156.186 255.23Z" fill="#202524"/>
<path d="M138.902 360.956C138.452 361.708 137.796 362.315 137.01 362.705C136.225 363.095 135.344 363.251 134.473 363.155C135.139 360.579 132.88 356.384 136.76 355.747C139.452 355.313 138.555 358.988 138.902 360.956Z" fill="#221B1E"/>
<path d="M161.078 179.248C161.078 178.583 161.078 177.946 161.31 177.31C163.944 174.966 166.839 176.065 169.676 176.702L172.253 177.281C170.545 179.393 169.155 182.026 165.681 181.187C164.321 180.145 162.178 181.042 161.078 179.248Z" fill="#457A89"/>
<path d="M191.91 227.916C187.944 223.228 190.694 217.644 189.883 212.552H191.707C191.939 216.139 192.142 219.727 192.373 223.315C192.228 224.849 192.084 226.382 191.91 227.916Z" fill="#101612"/>
<path d="M145.677 265.675C145.301 268.568 146.459 272.012 143.737 274.355V259.454C143.856 259.225 144.03 259.03 144.244 258.887C144.458 258.743 144.705 258.656 144.962 258.633C145.219 258.61 145.477 258.651 145.714 258.754C145.95 258.858 146.156 259.019 146.314 259.223C146.748 260.267 146.918 261.403 146.807 262.529C146.696 263.655 146.308 264.735 145.677 265.675Z" fill="#CF2B38"/>
<path d="M156.822 292.237V279.014C158.408 280.852 159.28 283.198 159.28 285.625C159.28 288.052 158.408 290.398 156.822 292.237Z" fill="#262225"/>
<path d="M178.68 176.181C178.642 175.908 178.678 175.629 178.785 175.374C178.892 175.119 179.066 174.899 179.288 174.734C180.707 173.519 178.738 168.948 183.138 170.684C183.138 174.3 183.138 177.917 183.138 181.505L178.68 176.181Z" fill="#B82D40"/>
<path d="M150.164 252.047C150.799 252.256 151.396 252.569 151.929 252.973L151.756 265.646L149.932 261.219C149.329 260.61 148.856 259.885 148.54 259.089C148.225 258.292 148.073 257.44 148.095 256.584C148.116 255.727 148.311 254.884 148.666 254.104C149.022 253.325 149.531 252.625 150.164 252.047Z" fill="#CF2B38"/>
<path d="M107.839 192.616L103.381 199.271H101.267C99.733 194.67 100.573 191.082 105.581 189.317C106.105 189.348 106.616 189.49 107.081 189.735C107.545 189.979 107.952 190.32 108.273 190.735C108.341 191.061 108.337 191.398 108.262 191.723C108.187 192.047 108.043 192.352 107.839 192.616Z" fill="#F32F3F"/>
<path d="M112.297 181.534C112.346 183.265 112.011 184.985 111.315 186.571C110.619 188.157 109.58 189.57 108.273 190.706L107.723 190.243C106.362 185.932 104.104 181.187 112.008 181.331L112.297 181.534Z" fill="#F32F3F"/>
<path d="M161.078 179.248L165.681 181.187H151.814L161.078 179.248Z" fill="#134F5C"/>
<path d="M145.387 258.702C144.769 258.919 144.185 259.221 143.65 259.599C143.65 255.664 141.942 251.526 145.271 248.025C145.474 249.472 145.648 250.918 145.85 252.394C146.255 252.828 146.566 253.342 146.763 253.902C146.961 254.462 147.04 255.057 146.997 255.649C146.953 256.241 146.788 256.818 146.511 257.344C146.234 257.869 145.851 258.331 145.387 258.702Z" fill="#610005"/>
<path d="M103.757 214.924C105.135 216.349 105.905 218.252 105.905 220.233C105.905 222.215 105.135 224.119 103.757 225.543H103.092C101.181 221.897 102.281 218.251 103.092 214.606L103.757 214.924Z" fill="#0C1617"/>
<path d="M192.431 257.139C192.199 260.033 191.997 262.926 191.794 265.617C189.391 262.608 188.146 259.657 192.431 257.139Z" fill="#121112"/>
<path d="M112.007 181.331C106.623 182.402 108.273 186.858 107.723 190.243C102.772 191.227 101.933 195.191 101.267 199.242C97.9666 190.156 102.222 179.856 112.297 172.651C112.297 175.545 110.27 178.38 112.007 181.331Z" fill="#F52E3A"/>
<path d="M90.5556 162.35L94.377 160.701C92.611 164.723 94.956 168.658 94.6086 172.68H92.3794C92.0928 173.047 91.6835 173.299 91.2263 173.389C90.7691 173.48 90.2947 173.403 89.8898 173.172C89.6099 172.79 89.459 172.329 89.459 171.855C89.459 171.382 89.6099 170.921 89.8898 170.539L90.5556 162.35Z" fill="#F32F3F"/>
<path d="M90.2377 208.182L85.9241 207.98C83.2318 204.566 87.7191 201.296 86.1268 197.911C86.1104 197.69 86.1469 197.469 86.2332 197.266C86.3195 197.062 86.4531 196.882 86.623 196.741C86.7928 196.599 86.994 196.5 87.2098 196.452C87.4256 196.404 87.6498 196.408 87.8637 196.464C88.6737 196.958 89.3497 197.644 89.8323 198.461C90.1508 200.168 91.6563 201.788 90.2956 203.669L90.2377 208.182Z" fill="#EB2D3B"/>
<path d="M117.451 160.99C117.133 160.456 116.843 159.906 116.582 159.341C117.827 157.287 115.656 154.104 118.753 152.628C122.43 153.873 122.893 156.303 121.243 159.486L117.451 160.99Z" fill="#220D12"/>
<path d="M90.4687 172.738C91.1056 172.738 91.7424 172.738 92.3793 172.738C91.6266 177.165 94.3768 182.2 90.0054 185.961C89.8079 186.173 89.5614 186.333 89.2874 186.427C89.0135 186.521 88.7206 186.546 88.4345 186.501C88.1485 186.455 87.8781 186.339 87.6472 186.165C87.4163 185.99 87.2319 185.761 87.1104 185.498C87.4765 181.081 88.6132 176.763 90.4687 172.738Z" fill="#E60A18"/>
<path d="M90.2378 203.669L88.3271 198.461C89.4562 195.885 87.0532 192.413 90.3535 190.359C96.0277 194.873 92.0037 199.271 90.2378 203.669Z" fill="#FD3640"/>
<path d="M94.2619 150.748C92.1775 146.147 95.2752 141.836 94.9857 137.322H96.6936C96.0278 141.807 98.9229 146.929 94.2619 150.748Z" fill="#EA091E"/>
<path d="M94.6084 172.68C98.7772 173.924 98.7771 173.924 95.0715 180.521C94.8689 177.281 94.7242 174.966 94.6084 172.68Z" fill="#F32F3F"/>
<path d="M103.178 214.664C103.178 218.31 103.178 221.955 103.178 225.601C102.59 225.716 102.023 225.92 101.499 226.209C100.837 226.035 100.156 225.947 99.472 225.948C99.472 224.444 99.2984 223.055 99.1826 221.435L103.178 214.664Z" fill="#C02734"/>
<path d="M112.327 150.545C111.834 153.149 113.543 156.332 109.866 158.618C106.739 154.538 109.026 152.397 112.327 150.516V150.545Z" fill="#F4323B"/>
<path d="M90.2378 190.359C89.4851 193.05 91.5405 196.435 88.2113 198.46C88.0638 197.754 87.8407 197.065 87.5455 196.406C86.8507 192.818 85.461 189.201 88.385 185.932H89.9194C90.2378 187.379 90.2378 188.883 90.2378 190.359Z" fill="#C51620"/>
<path d="M143.187 389.745L143.39 381.065C143.998 380.052 144.577 380.023 145.156 381.065H145.851C148.514 384.74 147.703 388.964 147.675 393.044C147.516 393.907 147.14 394.715 146.583 395.393C146.026 396.072 145.306 396.597 144.49 396.921C144.204 396.907 143.926 396.821 143.68 396.673C143.435 396.525 143.23 396.319 143.084 396.073C142.938 395.826 142.855 395.548 142.842 395.262C142.83 394.975 142.889 394.691 143.013 394.433L143.187 389.745Z" fill="#420000"/>
<path d="M138.902 400.943C137.599 401.232 135.805 402.679 135.11 400.943C133.633 397.471 136.21 395.648 138.902 394.201C139.359 394.636 139.722 395.159 139.97 395.739C140.218 396.318 140.346 396.942 140.346 397.572C140.346 398.202 140.218 398.826 139.97 399.405C139.722 399.985 139.359 400.508 138.902 400.943Z" fill="#211E1E"/>
<path d="M138.902 400.943V394.288H141.132C144.027 398.715 143.013 403.171 141.132 407.598C138.526 405.862 138.989 403.258 138.902 400.943Z" fill="#1B2424"/>
<path d="M141.103 407.482C141.103 403.026 141.103 398.599 141.103 394.172C141.732 394.177 142.361 394.226 142.984 394.317C142.984 395.012 143.245 395.735 143.419 396.429C144.252 397.305 144.74 398.452 144.793 399.659C144.847 400.866 144.461 402.052 143.708 402.997L143.013 407.453L141.103 407.482Z" fill="#0D1716"/>
<path d="M203.693 163.392C203.027 165.996 201.203 169.555 198.916 167.443C195.413 164.231 198.742 160.383 200.856 157.171C203.172 158.705 200.653 162.321 203.606 163.623L203.693 163.392Z" fill="#FC3841"/>
<path d="M183.138 170.683C181.835 172.014 180.562 173.374 179.288 174.734L178.94 161.627C182.878 163.421 183.486 166.864 183.138 170.683Z" fill="#F52F3C"/>
<path d="M205.662 187.784C205.43 189.086 205.227 190.417 205.025 191.719C203.558 189.186 202.786 186.312 202.786 183.386C202.786 180.46 203.558 177.585 205.025 175.053L205.662 187.784Z" fill="#E50814"/>
<path d="M201.26 145.424C202.013 146.462 202.522 147.658 202.747 148.92C202.973 150.183 202.91 151.48 202.563 152.715C202.501 153.2 202.317 153.661 202.029 154.056C201.74 154.451 201.356 154.766 200.913 154.972C196.715 151.645 200.247 148.578 201.26 145.424Z" fill="#F52F3C"/>
<path d="M200.913 155.001L202.563 152.744L203.606 163.652C200.074 162.611 201.261 159.573 200.855 157.2C200.962 156.472 200.981 155.734 200.913 155.001Z" fill="#B91D24"/>
<path d="M169.677 176.702L161.31 177.31L156.62 177.078C152.857 172.796 148.225 177.078 144.172 175.863C143.211 175.53 142.373 174.915 141.769 174.098C141.118 173.295 140.716 172.319 140.613 171.291C140.51 170.263 140.711 169.227 141.19 168.311L161.05 168.137C160.615 174.387 166.666 173.982 169.677 176.702Z" fill="#1BBBD3"/>
<path d="M143.332 172.651V174.908C144.114 175.4 144.345 175.892 144.085 176.355C143.824 176.818 143.535 177.049 143.274 177.049C135.255 178.438 128.799 174.677 121.648 170.307C125.18 167.211 128.944 168.658 132.244 168.195H134.444C136.76 171.089 140.814 170.336 143.332 172.651Z" fill="#0AB9D1"/>
<path d="M143.331 172.651C139.857 172.246 135.254 174.184 134.473 168.311H141.189L143.331 172.651Z" fill="#14AEC6"/>
<path d="M143.737 402.997C143.737 400.798 143.534 398.599 143.447 396.429L145.59 393.999C148.485 392.928 144.2 387.199 149.614 387.807C149.818 388.424 149.935 389.067 149.961 389.716C150.762 391.022 151.186 392.524 151.186 394.056C151.186 395.588 150.762 397.091 149.961 398.397C147.732 399.814 147.066 403.258 143.737 402.997Z" fill="#DB414F"/>
<path d="M149.614 387.807C148.282 389.861 146.922 391.915 145.59 393.999L145.85 380.949H149.759C149.701 383.322 149.672 385.55 149.614 387.807Z" fill="#8D484A"/>
<path d="M161.078 416.307V407.627H165.508V416.481L161.078 416.307Z" fill="#291A23"/>
<path d="M155.751 399.843C154.856 398.519 154.378 396.957 154.378 395.359C154.378 393.76 154.856 392.198 155.751 390.874C159.254 393.999 156.243 396.371 155.751 399.843Z" fill="#1F2426"/>
<path d="M149.933 398.512C149.933 395.619 149.933 392.725 149.933 389.832C153.262 393.073 151.785 397.124 151.756 400.943L149.933 398.512Z" fill="#D12C39"/>
<path d="M145.387 258.702C145.531 256.59 145.705 254.506 145.85 252.423L149.961 250.108C150.215 250.721 150.286 251.395 150.164 252.047C150.164 255.085 149.99 258.152 149.932 261.219L145.676 265.675C145.561 263.36 145.474 261.017 145.387 258.702Z" fill="#CD414B"/>
<path d="M141.16 303.492C141.836 303.347 142.469 303.051 143.013 302.624L143.273 316.773C139.77 312.78 142.347 307.832 141.16 303.492Z" fill="#EB2D3C"/>
<path d="M143.303 177.049C143.303 176.326 143.303 175.631 143.303 174.908C147.443 177.281 153.551 167.703 156.562 177.078L143.303 177.049Z" fill="#14AEC6"/>
<path d="M145.242 380.949H143.476C143.968 377.188 141.855 372.934 145.763 369.867L145.242 380.949Z" fill="#29090E"/>
</g>
<defs>
<clipPath id="clip0_191_1048">
<rect width="284" height="467" fill="white"/>
</clipPath>
</defs>
</svg>
