<svg width="133" height="133" viewBox="0 0 133 133" fill="none" xmlns="http://www.w3.org/2000/svg">
<g clip-path="url(#clip0_413_21)">
<path d="M112.219 0C101.633 0 92.8987 25.3921 91.6323 58.1875H88.3203L81.5339 44.355C78.2869 37.731 72.3447 32.8604 65.4934 31.1069L47.0176 25.6194C39.7117 23.866 31.9836 25.4895 26.0415 30.0679L15.7158 37.9907C12.0791 40.7832 11.3972 45.9785 14.1897 49.6477C16.9822 53.2844 22.21 53.9663 25.8467 51.1738L36.1399 43.2834C38.1531 41.7249 40.6858 41.2053 42.699 41.6599L46.5305 42.7964L36.8218 65.5259C33.5422 73.189 36.4646 82.1184 43.6406 86.3721L65.7207 99.4253L58.5771 122.187C57.2134 126.571 59.6487 131.247 64.0322 132.61C68.4158 133.974 73.0591 131.539 74.4229 127.155L82.6704 100.919C84.1965 95.4639 81.8911 89.6841 77.0205 86.7942L61.1099 77.4102L69.26 57.051L74.5203 67.8313C76.6309 72.085 80.9819 74.78 85.7227 74.8125H91.6323C92.8987 107.608 101.633 133 112.219 133C123.681 133 133 103.224 133 66.5C133 29.7756 123.681 0 112.219 0ZM70.6562 24.9375C77.54 24.9375 83.125 19.3525 83.125 12.4688C83.125 5.58496 77.54 0 70.6562 0C63.7725 0 58.1875 5.58496 58.1875 12.4688C58.1875 19.3525 63.7725 24.9375 70.6562 24.9375ZM29.5483 82.4756L25.6843 91.4375H8.3125C3.73413 91.4375 0 95.1392 0 99.75C0 104.328 3.73413 108.062 8.3125 108.062H28.4443C33.4124 108.062 37.9258 105.108 39.874 100.497L42.1794 95.1716L39.4194 93.5481C35.0684 90.9504 31.6265 87.0864 29.5159 82.4756H29.5483Z" fill="#232140"/>
</g>
<defs>
<clipPath id="clip0_413_21">
<rect width="133" height="133" fill="white"/>
</clipPath>
</defs>
</svg>
