<svg width="144" height="115" viewBox="0 0 144 115" fill="none" xmlns="http://www.w3.org/2000/svg">
<g clip-path="url(#clip0_413_27)">
<path d="M18 21.5625C23.9625 21.5625 28.8 16.7334 28.8 10.7812C28.8 4.8291 23.9625 0 18 0C12.0375 0 7.2 4.8291 7.2 10.7812C7.2 16.7334 12.0375 21.5625 18 21.5625ZM28.8 75.4688C28.8 69.5166 23.9625 64.6875 18 64.6875C12.0375 64.6875 7.2 69.5166 7.2 75.4688C7.2 81.4209 12.0375 86.25 18 86.25C23.9625 86.25 28.8 81.4209 28.8 75.4688ZM21.6 93.4375H14.4C6.46875 93.4375 0 99.895 0 107.812V111.406C0 113.372 1.63125 115 3.6 115H32.4C34.3687 115 36 113.372 36 111.406V107.812C36 99.895 29.5312 93.4375 21.6 93.4375ZM138.6 7.1875H55.8C52.8187 7.1875 50.4 9.60205 50.4 12.5781V37.7344C50.4 40.7104 52.8187 43.125 55.8 43.125H138.6C141.581 43.125 144 40.7104 144 37.7344V12.5781C144 9.60205 141.581 7.1875 138.6 7.1875ZM129.6 28.75H115.2V21.5625H129.6V28.75ZM21.6 28.75H14.4C6.46875 28.75 0 35.2075 0 43.125V46.7188C0 48.6841 1.63125 50.3125 3.6 50.3125H32.4C34.3687 50.3125 36 48.6841 36 46.7188V43.125C36 35.2075 29.5312 28.75 21.6 28.75ZM138.6 71.875H55.8C52.8187 71.875 50.4 74.2896 50.4 77.2656V102.422C50.4 105.398 52.8187 107.812 55.8 107.812H138.6C141.581 107.812 144 105.398 144 102.422V77.2656C144 74.2896 141.581 71.875 138.6 71.875ZM129.6 93.4375H79.2V86.25H129.6V93.4375Z" fill="#242141"/>
</g>
<defs>
<clipPath id="clip0_413_27">
<rect width="144" height="115" fill="white"/>
</clipPath>
</defs>
</svg>
