<svg width="142" height="142" viewBox="0 0 142 142" fill="none" xmlns="http://www.w3.org/2000/svg">
<path d="M35.5 124.25V62.125C35.5 57.2238 31.5268 53.25 26.625 53.25H8.875C3.97323 53.25 0 57.2238 0 62.125V124.25C0 129.152 3.97323 133.125 8.875 133.125H26.625C31.5268 133.125 35.5 129.152 35.5 124.25ZM142 62.1561C142 54.8053 136.042 48.8494 128.688 48.8494H88.0516C94.3662 38.3361 97.6264 26.4189 97.6264 22.218C97.6264 15.6763 92.4928 8.875 83.9076 8.875C66.3991 8.875 76.5957 29.9942 53.8912 48.1519L49.3716 51.7645C46.1029 54.376 44.454 58.2153 44.4346 62.0964C44.428 62.1031 44.375 62.1561 44.375 62.1561V106.512C44.375 110.701 46.3477 114.645 49.6994 117.157L59.1674 124.256C66.8473 130.013 76.1869 133.125 85.7849 133.125H102.062C109.417 133.125 115.375 127.169 115.375 119.818C115.375 118.81 115.242 117.837 115.029 116.893C120.367 115.161 124.25 110.208 124.25 104.294C124.25 101.757 123.502 99.4105 122.27 97.3931C128.446 96.2388 133.125 90.8431 133.125 84.3339C133.125 80.8671 131.768 77.7389 129.596 75.3712C136.518 74.8969 142 69.1959 142 62.1561Z" fill="#252241"/>
</svg>
