<svg width="121" height="127" viewBox="0 0 121 127" fill="none" xmlns="http://www.w3.org/2000/svg">
<g clip-path="url(#clip0_413_31)">
<path d="M102.85 7.93927C102.85 3.07135 99.541 -0.649352 95.8745 0.0947885L63.525 6.66307V101.918L102.85 90.4516V7.93927ZM57.475 6.66307L25.1255 0.0947885C21.459 -0.649352 18.15 3.07135 18.15 7.93927V90.4516L57.475 101.918V6.66307ZM113.482 8.17566L108.9 9.67857V90.4526C108.9 94.1723 106.931 97.3932 104.162 98.201L60.5 110.931L16.8377 98.201C14.0693 97.3932 12.1 94.1723 12.1 90.4526V9.67857L7.5175 8.17566C3.69882 6.92377 0 10.7124 0 15.8758V103.187C0 106.908 1.96965 110.129 4.73772 110.937L59.1877 126.811C60.0521 127.063 60.9479 127.063 61.8123 126.811L116.262 110.937C119.03 110.129 121 106.908 121 103.187V15.8758C121 10.7124 117.301 6.92377 113.482 8.17566Z" fill="#231E3E"/>
</g>
<defs>
<clipPath id="clip0_413_31">
<rect width="121" height="127" fill="white"/>
</clipPath>
</defs>
</svg>
