<svg width="110" height="126" viewBox="0 0 110 126" fill="none" xmlns="http://www.w3.org/2000/svg">
<path d="M100.179 29.5312H91.2055L92.9836 19.4325C94.0451 13.4032 89.4175 7.875 83.309 7.875H83.3081C78.5412 7.875 74.4622 11.3051 73.6337 16.0101L71.2527 29.5312H51.9198L53.6979 19.4325C54.7594 13.4032 50.1318 7.875 44.0233 7.875H44.0223C39.2555 7.875 35.1764 11.3051 34.348 16.0101L31.967 29.5312H17.6786C12.2544 29.5312 7.85714 33.9385 7.85714 39.375C7.85714 44.8115 12.2544 49.2188 17.6786 49.2188H28.5008L23.6478 76.7812H9.82143C4.3973 76.7812 0 81.1885 0 86.625C0 92.0615 4.3973 96.4688 9.82143 96.4688H20.1813L18.4034 106.567C17.3417 112.597 21.9696 118.125 28.0782 118.125C32.8453 118.125 36.9244 114.695 37.7528 109.99L40.1335 96.4688H59.467L57.6891 106.567C56.6274 112.597 61.255 118.125 67.3637 118.125H67.364C72.131 118.125 76.2101 114.695 77.0385 109.99L79.4193 96.4688H92.3214C97.7456 96.4688 102.143 92.0615 102.143 86.625C102.143 81.1885 97.7456 76.7812 92.3214 76.7812H82.8855L87.7387 49.2188H100.179C105.603 49.2188 110 44.8115 110 39.375C110 33.9385 105.603 29.5312 100.179 29.5312ZM62.9335 76.7812H43.5998L48.453 49.2188H67.7865L62.9335 76.7812Z" fill="#242140"/>
</svg>
