<svg width="151" height="121" viewBox="0 0 151 121" fill="none" xmlns="http://www.w3.org/2000/svg">
<path d="M52.909 39.5248C52.968 39.0231 53.2334 38.5509 53.6168 38.2555C54.0297 37.9606 54.5311 37.8129 55.0324 37.9015L58.7779 38.4032C59.2498 38.4623 59.7217 38.7277 60.0166 39.1117C60.3115 39.5248 60.459 40.0266 60.4 40.5283L54.708 83.2115H117.025L111.127 35.9827C110.183 28.4261 103.754 22.759 96.1445 22.759H54.8555C47.2465 22.759 40.8172 28.4261 39.8734 35.9827L33.975 83.2115H47.0695L52.909 39.5248ZM126.463 26.5369C127.583 26.5369 128.674 26.2125 129.589 25.5926L140.914 18.036C142.654 16.9439 143.656 14.9956 143.538 12.9296C143.421 10.8632 142.211 9.03307 140.353 8.14778C138.525 7.26202 136.342 7.43927 134.661 8.59042L123.336 16.1468C121.242 17.5343 120.328 20.1317 121.065 22.5227C121.773 24.8841 123.985 26.5369 126.463 26.5369ZM21.4113 25.5926C23.0924 26.7733 25.2748 26.9801 27.1328 26.0648C28.9908 25.1795 30.2 23.3493 30.318 21.2829C30.4359 19.2167 29.4332 17.2684 27.6637 16.1763L16.3387 8.61996C14.6576 7.40973 12.4752 7.23248 10.6172 8.11824C8.75918 9.03307 7.55 10.8632 7.43203 12.9296C7.31406 14.9956 8.3168 16.9439 10.0863 18.036L21.4113 25.5926ZM26.425 52.9849C26.425 49.8559 23.8887 47.3177 20.7625 47.3177H5.6625C2.53633 47.3177 0 49.8559 0 52.9849C0 56.1139 2.53633 58.6523 5.6625 58.6523H20.7625C23.8887 58.6523 26.425 56.1139 26.425 52.9849ZM145.338 47.3177H130.238C127.111 47.3177 124.575 49.8559 124.575 52.9849C124.575 56.1139 127.111 58.6523 130.238 58.6523H145.338C148.464 58.6523 151 56.1139 151 52.9849C151 49.8559 148.464 47.3177 145.338 47.3177ZM124.575 90.7679H26.425C24.3311 90.7679 22.65 92.4503 22.65 94.546V109.659C22.65 111.755 24.3311 113.437 26.425 113.437H124.575C126.669 113.437 128.35 111.755 128.35 109.659V94.5458C128.35 92.4503 126.669 90.7679 124.575 90.7679Z" fill="#252241"/>
</svg>
