<svg width="258" height="296" viewBox="0 0 258 296" fill="none" xmlns="http://www.w3.org/2000/svg">
<g clip-path="url(#clip0_278_4978)">
<path d="M230.358 129.5C225.089 129.5 220.213 131.059 216.022 133.63C213.623 120.752 202.407 111 188.895 111C178.886 111 170.198 116.394 165.347 124.394C162.954 111.51 151.736 101.75 138.216 101.75C131.105 101.75 124.685 104.523 119.787 108.953V23.125C119.787 10.3519 109.475 0 96.7517 0C84.0291 0 73.7172 10.3519 73.7172 23.125V209.671L41.4672 166.5C36.943 160.443 30.0219 157.25 23.0173 157.25C10.7997 157.25 0 167.113 0 180.387C0 185.217 1.50193 190.089 4.61002 194.25L57.1418 264.555C71.8634 284.248 95.2936 296 119.787 296H175.073C220.801 296 258.001 258.657 258.001 212.75V157.25C258.001 141.92 245.619 129.5 230.358 129.5Z" fill="white"/>
</g>
<defs>
<clipPath id="clip0_278_4978">
<rect width="258" height="296" fill="white"/>
</clipPath>
</defs>
</svg>
