<svg width="136" height="109" viewBox="0 0 136 109" fill="none" xmlns="http://www.w3.org/2000/svg">
<g clip-path="url(#clip0_411_13)">
<path d="M51 96.7323C51.0266 98.0629 51.4248 99.3668 52.1422 100.484L55.7812 105.966C56.8969 107.643 59.4469 109 61.4391 109H74.5609C76.5797 109 79.1031 107.643 80.2188 105.966L83.8578 100.484C84.5484 99.3402 84.9469 98.0629 85 96.7323V88.5626H51V96.7323ZM67.8938 0.000126171C46.2188 0.0533488 30.6 17.67 30.6 37.4689C30.6 46.5433 33.8672 55.2985 39.8438 62.111C43.3766 66.1293 48.8484 74.5118 50.9469 81.5905C50.9469 81.6437 50.9734 81.6969 50.9734 81.7501H85.0266C85.0266 81.6969 85.0531 81.6437 85.0531 81.5905C87.1516 74.5118 92.6234 66.1293 96.1562 62.111C102.133 55.2985 105.4 46.5433 105.4 37.4689C105.4 16.7387 88.5859 -0.0530965 67.8938 0.000126171ZM68 20.4376C58.6234 20.4376 51 28.0751 51 37.4689C51 39.3583 49.4859 40.8751 47.6 40.8751C45.7141 40.8751 44.2 39.3583 44.2 37.4689C44.2266 24.2963 54.8516 13.6517 68 13.6251C69.8859 13.6251 71.4 15.142 71.4 17.0314C71.4 18.9208 69.8859 20.4376 68 20.4376ZM23.8 40.8751C23.8 38.0543 21.5156 35.7658 18.7 35.7658H5.1C2.28437 35.7658 0 38.0543 0 40.8751C0 43.6959 2.28437 45.9845 5.1 45.9845H18.7C21.5156 45.9845 23.8 43.6959 23.8 40.8751ZM130.9 35.7658H117.3C114.484 35.7658 112.2 38.0543 112.2 40.8751C112.2 43.6959 114.484 45.9845 117.3 45.9845H130.9C133.716 45.9845 136 43.6959 136 40.8751C136 38.0543 133.716 35.7658 130.9 35.7658ZM27.8641 11.7623L16.0703 4.94983C14.5031 3.99183 12.5375 3.96521 10.9172 4.87C9.32344 5.8014 8.34062 7.50452 8.34062 9.3407C8.36719 11.2035 9.37656 12.9066 10.9703 13.7848L22.7641 20.5973C24.3313 21.5553 26.2969 21.5819 27.9172 20.6771C29.5109 19.7457 30.4938 18.0426 30.4938 16.2064C30.4672 14.3436 29.4578 12.6405 27.8641 11.7623ZM125.03 67.9655L113.236 61.153C111.669 60.1949 109.703 60.1683 108.083 61.0731C106.489 62.0045 105.506 63.7076 105.506 65.5438C105.533 67.4066 106.542 69.1097 108.136 69.9879L119.93 76.8004C122.347 78.1576 125.428 77.306 126.809 74.8844C128.191 72.4894 127.394 69.4025 125.03 67.9655ZM22.7641 61.153L10.9703 67.9655C9.37656 68.8436 8.36719 70.5468 8.34062 72.4095C8.34062 74.2457 9.32344 75.9489 10.9172 76.8802C12.5375 77.785 14.5031 77.7584 16.0703 76.8004L27.8641 69.9879C30.2281 68.5509 31.0248 65.464 29.6438 63.069C28.2625 60.6473 25.1813 59.7958 22.7641 61.153ZM110.713 21.2892C111.589 21.2892 112.466 21.0497 113.263 20.5973L125.03 13.7848C127.42 12.3478 128.191 9.26087 126.809 6.86585C125.428 4.44422 122.347 3.59266 119.93 4.94983L108.163 11.7623C106.144 12.9066 105.188 15.275 105.772 17.5104C106.383 19.7457 108.402 21.2892 110.713 21.2892Z" fill="#211F3E"/>
</g>
<defs>
<clipPath id="clip0_411_13">
<rect width="136" height="109" fill="white"/>
</clipPath>
</defs>
</svg>
