<svg width="140" height="140" viewBox="0 0 140 140" fill="none" xmlns="http://www.w3.org/2000/svg">
<g clip-path="url(#clip0_413_15)">
<path d="M43.7505 48.9453V48.125C43.7505 48.3984 43.6822 48.6377 43.6822 48.9111C43.6822 48.9111 43.7164 48.9111 43.7505 48.9453ZM139.25 75.1953C133.508 62.3096 125.988 33.7012 119.255 24.1309C108.59 8.98926 91.2609 0 72.7694 0H52.5005C23.5159 0 0 23.5156 0 52.5C0 67.4023 6.35742 81.6211 17.5003 91.5674V140H87.5011V122.5H105.001C114.674 122.5 122.502 114.673 122.502 105V87.5H131.252C134.225 87.5 136.96 85.9961 138.566 83.501C140.207 81.04 140.446 77.8955 139.25 75.1953ZM91.8761 56.875H77.9308C78.4777 58.2764 78.7511 59.7461 78.7511 61.25C78.7511 68.4961 72.8719 74.375 65.6258 74.375C64.1219 74.375 62.6522 74.1016 61.2508 73.5547V87.5H43.7505V73.5547C42.3492 74.1016 40.8795 74.375 39.3755 74.375C32.1292 74.375 26.2503 68.4961 26.2503 61.25C26.2503 60.9766 26.3186 60.7373 26.3186 60.4639C20.2688 58.3789 16.6116 52.2266 17.6712 45.9033C18.7649 39.6143 24.2337 35 30.6253 35C30.6253 27.7539 36.5045 21.875 43.7505 21.875C46.0064 21.875 48.2281 22.4902 50.1763 23.6182C52.5689 19.8242 56.7391 17.5 61.2508 17.5C65.7625 17.5 69.9325 19.8242 72.325 23.6182C75.6749 21.6699 79.7081 21.3281 83.3653 22.6953C86.9884 24.0625 89.8253 26.9678 91.0558 30.625H91.8761C99.1225 30.625 105.001 36.5039 105.001 43.75C105.001 50.9961 99.1225 56.875 91.8761 56.875Z" fill="#1B1938"/>
</g>
<defs>
<clipPath id="clip0_413_15">
<rect width="140" height="140" fill="white"/>
</clipPath>
</defs>
</svg>
