<svg width="118" height="118" viewBox="0 0 118 118" fill="none" xmlns="http://www.w3.org/2000/svg">
<path d="M107.514 19.2856L63.2637 0.846281C62.1401 0.378199 60.2316 0 59.0143 0C57.79 0 55.8887 0.378199 54.758 0.846281L10.508 19.2856C6.38122 20.9888 3.6875 25.0229 3.6875 29.4963C3.6875 88.7667 47.2839 118 58.9892 118C70.9786 118 114.312 88.4569 114.312 29.4963C114.312 25.0229 111.619 20.9888 107.514 19.2856ZM81.125 46.0954C81.125 47.3701 80.6871 48.6513 79.7927 49.6948L57.6677 75.5073C56.1097 77.3232 54.0668 77.4375 53.4688 77.4375C52.0067 77.4375 50.595 76.8542 49.5579 75.8171L38.4954 64.7546C37.4152 63.6741 36.875 62.2591 36.875 60.8438C36.875 57.8961 39.2484 55.3125 42.4062 55.3125C43.8216 55.3125 45.2366 55.8527 46.3171 56.9329L53.159 63.7751L71.3948 42.4927C72.4916 41.2177 74.0411 40.5655 75.5981 40.5655C79.8272 40.5655 81.125 44.3924 81.125 46.0954Z" fill="#1C1939"/>
</svg>
