<svg width="117" height="117" viewBox="0 0 117 117" fill="none" xmlns="http://www.w3.org/2000/svg">
<path d="M73.125 76.7812C73.125 78.8022 71.4897 80.4375 69.4688 80.4375H47.5312C45.5103 80.4375 43.875 78.8022 43.875 76.7812V65.8125H0V98.7188C0 104.567 5.12012 109.688 10.9688 109.688H106.031C111.88 109.688 117 104.567 117 98.7188V65.8125H73.125V76.7812ZM106.031 21.9375H87.75V10.9688C87.75 5.12012 82.6299 0 76.7812 0H40.2188C34.3701 0 29.25 5.12012 29.25 10.9688V21.9375H10.9688C5.12012 21.9375 0 27.0576 0 32.9062V58.5H117V32.9062C117 27.0576 111.88 21.9375 106.031 21.9375ZM76.7812 21.9375H40.2188V10.9688H76.7812V21.9375Z" fill="#221F3E"/>
</svg>
