<svg width="156" height="125" viewBox="0 0 156 125" fill="none" xmlns="http://www.w3.org/2000/svg">
<g clip-path="url(#clip0_413_17)">
<path d="M144.3 70.3125H140.4V51.9275C140.4 41.7119 133.079 32.3867 122.933 31.353C111.268 30.1665 101.4 39.3372 101.4 50.7812V70.3125H97.5C91.065 70.3125 85.8 75.5864 85.8 82.0312V113.281C85.8 119.726 91.065 125 97.5 125H144.3C150.735 125 156 119.726 156 113.281V82.0312C156 75.5864 150.735 70.3125 144.3 70.3125ZM120.9 105.469C116.604 105.469 113.1 101.959 113.1 97.6562C113.1 93.3533 116.604 89.8438 120.9 89.8438C125.196 89.8438 128.7 93.3533 128.7 97.6562C128.7 101.959 125.196 105.469 120.9 105.469ZM128.7 70.3125H113.1V50.7812C113.1 46.4783 116.604 42.9688 120.9 42.9688C125.196 42.9688 128.7 46.4783 128.7 50.7812V70.3125ZM54.6 62.5C71.8319 62.5 85.8 48.5085 85.8 31.25C85.8 13.9915 71.8319 0 54.6 0C37.3698 0 23.4 13.9915 23.4 31.25C23.4 48.5085 37.3698 62.5 54.6 62.5ZM78 82.0312C78 79.9141 78.4236 77.9124 79.0489 76.0022C75.2135 74.8547 71.1575 74.2188 66.9493 74.2188H42.2507C18.9172 74.2188 0 93.1646 0 116.536C0 121.21 3.78373 125 8.44935 125H81.9995C79.5249 121.725 78 117.695 78 113.281V82.0312Z" fill="#1B1838"/>
</g>
<defs>
<clipPath id="clip0_413_17">
<rect width="156" height="125" fill="white"/>
</clipPath>
</defs>
</svg>
