<svg width="166" height="133" viewBox="0 0 166 133" fill="none" xmlns="http://www.w3.org/2000/svg">
<path d="M0 99.7235H16.6C21.2039 99.7235 24.9 96.0219 24.9 91.4131V33.309H0V99.7235ZM12.45 83.1362C14.7195 83.1362 16.6 84.986 16.6 87.2914C16.6 89.5623 14.7195 91.4456 12.45 91.4456C10.1805 91.4456 8.3 89.5623 8.3 87.2914C8.3 84.986 10.1805 83.1362 12.45 83.1362ZM90.457 16.625C88.3973 16.625 86.4118 17.3962 84.8921 18.7883L59.3645 42.1714C59.332 42.2039 59.332 42.2688 59.2996 42.2688C54.9875 46.3256 55.0523 52.7852 58.7484 56.8105C62.0555 60.4462 68.9613 61.3878 73.3059 57.5248C73.3383 57.4924 73.3707 57.4924 73.4031 57.4599L94.1207 38.4708C95.8066 36.9457 98.4652 37.0431 99.9891 38.7305C101.545 40.418 101.416 43.0481 99.7297 44.6057L92.9535 50.8055L130.725 81.4812C131.471 82.1296 132.152 82.779 132.768 83.4923V33.244C122.139 22.6038 107.723 16.625 92.6915 16.625H90.457ZM86.7934 56.4858L79.0121 63.6273C71.2957 70.6705 59.4941 69.9897 52.6207 62.4918C45.65 54.8633 46.2012 43.0481 53.7555 36.069L74.9918 16.625H73.276C58.2673 16.625 43.8709 22.5853 33.2462 33.1993L33.2 33.244V91.3806H37.9336L61.407 112.643C68.5398 118.453 78.9797 117.349 84.7508 110.24L84.8156 110.175L89.452 114.201C93.5695 117.576 99.6648 116.927 103.037 112.805L111.175 102.774L112.568 103.943C116.135 106.8 121.355 106.281 124.241 102.709L126.705 99.6586C129.59 96.086 129.042 90.8489 125.481 87.953L86.7934 56.4858ZM141.1 33.309V91.4456C141.1 96.0219 144.796 99.756 149.4 99.756H166V33.309H141.1ZM153.55 91.4456C151.28 91.4456 149.4 89.5623 149.4 87.2914C149.4 84.986 151.28 83.1362 153.55 83.1362C155.82 83.1362 157.7 84.986 157.7 87.2914C157.7 89.5623 155.82 91.4456 153.55 91.4456Z" fill="#131635"/>
</svg>
