<svg width="376" height="133" viewBox="0 0 376 133" fill="none" xmlns="http://www.w3.org/2000/svg">
<path d="M144.438 132.875C144.438 132.875 133.375 132.875 133.375 121.812C133.375 110.75 144.438 77.5625 188.688 77.5625C232.938 77.5625 244 110.75 244 121.812C244 132.875 232.938 132.875 232.938 132.875H144.438ZM188.688 66.5C197.489 66.5 205.931 63.0035 212.155 56.7796C218.378 50.5557 221.875 42.1144 221.875 33.3125C221.875 24.5106 218.378 16.0693 212.155 9.84539C205.931 3.62153 197.489 0.125 188.688 0.125C179.886 0.125 171.444 3.62153 165.22 9.84539C158.997 16.0693 155.5 24.5106 155.5 33.3125C155.5 42.1144 158.997 50.5557 165.22 56.7796C171.444 63.0035 179.886 66.5 188.688 66.5V66.5Z" fill="white"/>
<path fill-rule="evenodd" clip-rule="evenodd" d="M124.702 132.875C123.062 129.421 122.244 125.635 122.312 121.812C122.312 106.823 129.835 91.3906 143.729 80.66C136.794 78.5231 129.569 77.4781 122.312 77.5625C78.0625 77.5625 67 110.75 67 121.812C67 132.875 78.0625 132.875 78.0625 132.875H124.702Z" fill="white"/>
<path d="M116.781 66.5C124.116 66.5 131.151 63.5862 136.337 58.3997C141.524 53.2131 144.438 46.1786 144.438 38.8438C144.438 31.5089 141.524 24.4744 136.337 19.2878C131.151 14.1013 124.116 11.1875 116.781 11.1875C109.446 11.1875 102.412 14.1013 97.2253 19.2878C92.0388 24.4744 89.125 31.5089 89.125 38.8438C89.125 46.1786 92.0388 53.2131 97.2253 58.3997C102.412 63.5862 109.446 66.5 116.781 66.5V66.5Z" fill="white"/>
<path fill-rule="evenodd" clip-rule="evenodd" d="M57.702 126.875C56.062 123.421 55.2442 119.635 55.3125 115.812C55.3125 100.823 62.835 85.3906 76.7295 74.66C69.7943 72.5231 62.5689 71.4781 55.3125 71.5625C11.0625 71.5625 0 104.75 0 115.812C0 126.875 11.0625 126.875 11.0625 126.875H57.702Z" fill="white"/>
<path d="M49.7812 60.5C57.1161 60.5 64.1506 57.5862 69.3372 52.3997C74.5237 47.2131 77.4375 40.1786 77.4375 32.8438C77.4375 25.5089 74.5237 18.4744 69.3372 13.2878C64.1506 8.10128 57.1161 5.1875 49.7812 5.1875C42.4464 5.1875 35.4119 8.10128 30.2253 13.2878C25.0388 18.4744 22.125 25.5089 22.125 32.8438C22.125 40.1786 25.0388 47.2131 30.2253 52.3997C35.4119 57.5862 42.4464 60.5 49.7812 60.5V60.5Z" fill="white"/>
<path fill-rule="evenodd" clip-rule="evenodd" d="M252.298 126.875C253.938 123.421 254.756 119.635 254.688 115.812C254.688 100.823 247.165 85.3906 233.271 74.66C240.206 72.5231 247.431 71.4781 254.688 71.5625C298.938 71.5625 310 104.75 310 115.812C310 126.875 298.938 126.875 298.938 126.875H252.298Z" fill="white"/>
<path d="M260.219 60.5C252.884 60.5 245.849 57.5862 240.663 52.3997C235.476 47.2131 232.562 40.1786 232.562 32.8438C232.562 25.5089 235.476 18.4744 240.663 13.2878C245.849 8.10128 252.884 5.1875 260.219 5.1875C267.554 5.1875 274.588 8.10128 279.775 13.2878C284.961 18.4744 287.875 25.5089 287.875 32.8438C287.875 40.1786 284.961 47.2131 279.775 52.3997C274.588 57.5862 267.554 60.5 260.219 60.5V60.5Z" fill="white"/>
<path fill-rule="evenodd" clip-rule="evenodd" d="M318.298 126.875C319.938 123.421 320.756 119.635 320.688 115.812C320.688 100.823 313.165 85.3906 299.271 74.66C306.206 72.5231 313.431 71.4781 320.688 71.5625C364.938 71.5625 376 104.75 376 115.812C376 126.875 364.938 126.875 364.938 126.875H318.298Z" fill="#EE1C25"/>
<path d="M326.219 60.5C318.884 60.5 311.849 57.5862 306.663 52.3997C301.476 47.2131 298.562 40.1786 298.562 32.8438C298.562 25.5089 301.476 18.4744 306.663 13.2878C311.849 8.10128 318.884 5.1875 326.219 5.1875C333.554 5.1875 340.588 8.10128 345.775 13.2878C350.961 18.4744 353.875 25.5089 353.875 32.8438C353.875 40.1786 350.961 47.2131 345.775 52.3997C340.588 57.5862 333.554 60.5 326.219 60.5V60.5Z" fill="#EE1C25"/>
</svg>
