<svg width="74" height="89" viewBox="0 0 74 89" fill="none" xmlns="http://www.w3.org/2000/svg">
<path d="M8.1875 88.375C8.1875 88.375 0.875 88.375 0.875 81.0625C0.875 73.75 8.1875 51.8125 37.4375 51.8125C66.6875 51.8125 74 73.75 74 81.0625C74 88.375 66.6875 88.375 66.6875 88.375H8.1875ZM37.4375 44.5C43.2557 44.5 48.8356 42.1887 52.9497 38.0747C57.0637 33.9606 59.375 28.3807 59.375 22.5625C59.375 16.7443 57.0637 11.1644 52.9497 7.05035C48.8356 2.93627 43.2557 0.625 37.4375 0.625C31.6193 0.625 26.0394 2.93627 21.9253 7.05035C17.8113 11.1644 15.5 16.7443 15.5 22.5625C15.5 28.3807 17.8113 33.9606 21.9253 38.0747C26.0394 42.1887 31.6193 44.5 37.4375 44.5V44.5Z" fill="#EE1C25"/>
</svg>
