<svg width="168" height="33" viewBox="0 0 168 33" fill="none" xmlns="http://www.w3.org/2000/svg">
<path d="M15.8432 5.08016C15.5285 4.14921 15.0536 3.29836 14.4461 2.577C13.8395 1.85216 13.1059 1.27896 12.2923 0.894153C11.3915 0.478892 10.4262 0.273461 9.45379 0.290123H2.00253C1.73969 0.28908 1.47925 0.346868 1.23618 0.460167C0.993114 0.573466 0.772198 0.740043 0.586124 0.950333C0.40005 1.16062 0.252483 1.41048 0.151898 1.68556C0.0513135 1.96064 -0.000306939 2.25552 1.37297e-06 2.55326V24.5621H4.49171V15.7522H9.45379C10.423 15.7697 11.3863 15.5781 12.2923 15.1878C13.0997 14.8299 13.8353 14.2917 14.4554 13.6052C15.0677 12.9227 15.5441 12.0998 15.8526 11.1917C16.1763 10.2202 16.3374 9.18881 16.3276 8.15043C16.3346 7.10194 16.1704 6.06102 15.8432 5.08016ZM11.5355 10.6193C10.965 11.2919 10.0336 11.6243 8.74126 11.6243H4.49171V4.48404H8.74359C10.0336 4.48404 10.965 4.81288 11.5378 5.47054C11.8221 5.80457 12.0443 6.19992 12.1911 6.63309C12.3379 7.06627 12.4063 7.52844 12.3924 7.99217C12.4106 8.47217 12.3442 8.95149 12.1971 9.40211C12.05 9.85273 11.8251 10.2656 11.5355 10.6167V10.6193Z" fill="white"/>
<path d="M34.4135 11.6586C34.0675 10.5479 33.5175 9.53289 32.7998 8.68063C32.0832 7.85141 31.2198 7.2033 30.2664 6.77886C29.1966 6.31161 28.0574 6.08235 26.911 6.10361C25.7486 6.08165 24.5933 6.31082 23.5067 6.77886C22.542 7.20513 21.6687 7.8598 20.9453 8.6991C20.2204 9.55549 19.6647 10.5769 19.3153 11.6955C18.9283 12.9371 18.736 14.2457 18.7472 15.5624C18.7345 16.8677 18.9196 18.1658 19.2944 19.4002C19.6245 20.5195 20.1689 21.5423 20.8886 22.3954C21.6084 23.2486 22.4857 23.911 23.4578 24.3353C24.5588 24.8159 25.7312 25.0514 26.911 25.029C28.0518 25.0472 29.1852 24.818 30.2501 24.3538C31.2135 23.9321 32.0838 23.2767 32.7998 22.4335C33.5135 21.5778 34.063 20.5639 34.4135 19.4556C34.8024 18.2056 34.9931 16.8876 34.977 15.5624C34.9913 14.2339 34.8006 12.9127 34.4135 11.6586ZM26.911 21.054C24.3496 21.054 23.0697 19.2261 23.0712 15.5703C23.0728 11.9144 24.3527 10.0988 26.911 10.1234C29.4708 10.1234 30.7507 11.9391 30.7507 15.5703C30.7507 19.2015 29.4708 21.0294 26.911 21.054Z" fill="white"/>
<path d="M69.178 1.70612e-06C68.7569 -0.000584588 68.3464 0.149949 68.0054 0.430006C67.6645 0.710063 67.4106 1.10525 67.2803 1.55887C67.214 1.7852 67.1802 2.02207 67.1801 2.2605V8.91538C65.9972 7.04262 64.4278 6.10537 62.4719 6.10361C61.518 6.08273 60.5731 6.31488 59.7126 6.78149C58.9062 7.22969 58.2042 7.88661 57.6635 8.69909C57.0798 9.58021 56.6477 10.5779 56.3898 11.6401C56.0872 12.8586 55.9398 14.1199 55.952 15.3856C55.9336 16.761 56.1073 18.1311 56.4666 19.445C56.7675 20.5486 57.2485 21.5784 57.8847 22.481C58.4694 23.2915 59.2091 23.9409 60.0479 24.3801C60.1736 24.4487 60.2994 24.5067 60.4321 24.5621C61.1968 24.8848 62.0074 25.0457 62.8235 25.0369C63.5862 25.0514 64.3436 24.8899 65.0495 24.5621C65.969 24.1152 66.7383 23.3473 67.2453 22.3702L67.2779 24.5621H69.3154C69.5783 24.5632 69.8389 24.5054 70.0821 24.3921C70.3253 24.2789 70.5463 24.1123 70.7326 23.9021C70.9189 23.6918 71.0666 23.442 71.1675 23.1669C71.2683 22.8918 71.3202 22.5969 71.3202 22.299V1.70612e-06H69.178ZM67.2803 17.1054C67.1827 18.0675 66.8523 18.9803 66.3256 19.7431C66.0316 20.1891 65.6491 20.5505 65.209 20.7979C64.7689 21.0454 64.2835 21.172 63.7921 21.1674C63.2855 21.1738 62.7852 21.0391 62.3354 20.7751C61.8855 20.5111 61.4998 20.1259 61.2121 19.6534C60.5462 18.6405 60.2124 17.3296 60.2109 15.7206C60.2109 12.0173 61.4155 10.1656 63.8247 10.1656C65.8583 10.1656 67.0101 11.6331 67.2803 14.5679C67.3248 15.049 67.3458 15.5324 67.3431 16.016C67.3451 16.3804 67.3241 16.7444 67.2803 17.1054Z" fill="white"/>
<path d="M129.156 11.6586C128.82 10.5527 128.275 9.54325 127.559 8.70048C126.843 7.8577 125.974 7.20192 125.011 6.77886C123.941 6.31166 122.801 6.0824 121.654 6.10361C120.491 6.08165 119.336 6.31082 118.249 6.77886C117.284 7.20484 116.411 7.85955 115.688 8.6991C114.962 9.55479 114.406 10.5765 114.058 11.6955C113.67 12.9367 113.477 14.2456 113.49 15.5624C113.478 16.8678 113.664 18.1659 114.039 19.4002C114.374 20.5252 114.919 21.5552 115.637 22.4203C116.358 23.2669 117.231 23.9272 118.198 24.3564C119.298 24.8369 120.47 25.0725 121.649 25.0501C122.791 25.068 123.925 24.8389 124.99 24.3749C125.953 23.9526 126.822 23.2972 127.538 22.4546C128.253 21.6003 128.803 20.586 129.151 19.4767C129.546 18.2209 129.739 16.8952 129.722 15.5624C129.737 14.2336 129.545 12.9122 129.156 11.6586ZM121.654 21.054C119.094 21.054 117.814 19.2261 117.814 15.5703C117.814 11.9144 119.094 10.0988 121.654 10.1234C124.215 10.1234 125.495 11.9391 125.493 15.5703C125.492 19.2015 124.212 21.0294 121.654 21.054Z" fill="white"/>
<path d="M140.403 6.17749C139.988 6.22834 139.581 6.34556 139.194 6.52567C138.773 6.72185 138.381 6.9886 138.03 7.31697C137.603 7.72195 137.238 8.20304 136.947 8.74132V6.59425H135.008C134.483 6.5984 133.981 6.83659 133.61 7.25722C133.239 7.67785 133.029 8.24705 133.026 8.84156V24.5648H137.217V15.2063C137.21 14.0821 137.59 12.9991 138.277 12.1873C138.963 11.3756 139.902 10.8992 140.894 10.8594C141.338 10.8471 141.781 10.8825 142.219 10.9649V6.10364H141.672C141.248 6.10359 140.824 6.12824 140.403 6.17749Z" fill="white"/>
<path d="M145.113 2.26313V24.5648H149.305V0H147.106C146.577 0.00139699 146.07 0.24045 145.697 0.664719C145.323 1.08899 145.113 1.66383 145.113 2.26313Z" fill="white"/>
<path d="M165.793 0C165.531 0 165.271 0.0584695 165.029 0.17207C164.787 0.285671 164.567 0.452178 164.382 0.662084C164.197 0.871991 164.05 1.12119 163.949 1.39544C163.849 1.6697 163.797 1.96364 163.797 2.2605V8.91802C162.614 7.04174 161.044 6.10361 159.084 6.10361C158.132 6.08349 157.188 6.31466 156.327 6.77885C155.521 7.22889 154.82 7.88653 154.278 8.69909C153.695 9.5807 153.262 10.5782 153.002 11.6401C152.703 12.8601 152.556 14.1219 152.567 15.3883C152.549 16.763 152.724 18.1322 153.084 19.445C153.385 20.5482 153.867 21.5772 154.504 22.4784C155.087 23.2908 155.826 23.9413 156.665 24.3801C157.537 24.8258 158.484 25.05 159.441 25.0369C161.42 25.0369 162.895 24.148 163.865 22.3702L163.898 24.5621H167.933V0H165.793ZM162.943 19.7378C162.648 20.1834 162.266 20.5444 161.826 20.7918C161.386 21.0392 160.901 21.1661 160.409 21.1622C159.902 21.1698 159.401 21.0354 158.95 20.7708C158.5 20.5062 158.114 20.1197 157.827 19.6455C157.161 18.6361 156.827 17.3261 156.826 15.7153C156.826 12.012 158.03 10.1604 160.44 10.1604C162.784 10.1604 163.956 12.1096 163.958 16.0081C163.958 17.5433 163.62 18.7865 162.943 19.7378Z" fill="white"/>
<path d="M51.1624 7.64929C49.0062 5.27537 44.5424 5.38879 41.981 6.59421C38.9539 7.99219 38.281 10.1393 38.281 14.8396V24.5621H42.4723V14.2567C42.4723 11.5003 43.5528 10.1261 45.7323 10.1261C46.9315 10.1261 48.0142 10.5138 48.2773 11.9725C48.4264 12.8086 48.5102 24.5595 48.4403 24.5595H52.6713V12.0991C52.6853 11.2192 52.5477 10.3448 52.2661 9.52468C52.0165 8.81987 51.6407 8.1813 51.1624 7.64929Z" fill="white"/>
<path d="M82.8606 19.1918L79.114 6.45972H73.9214L80.5926 25.0739C80.0865 26.7848 79.1885 27.6412 77.8985 27.643H77.8845C77.5609 27.6391 77.2459 27.7608 76.9918 27.9877C76.7376 28.2147 76.5597 28.5333 76.4874 28.8906L75.8936 31.916C76.7852 32.1785 77.6997 32.328 78.6203 32.3618C79.9475 32.3932 81.2348 31.8476 82.2179 30.8372C83.2145 29.8191 84.1187 28.1186 84.9306 25.7359L87.9577 16.7889L85.7572 9.33743L82.8606 19.1918Z" fill="white"/>
<path d="M111.953 6.45972L106.432 25.2611H102.259L99.2321 14.0563L96.3425 25.2611H92.1697L88.8749 14.109L87.1844 8.38259C87.1194 8.16328 87.1014 7.92961 87.1318 7.70086C87.1623 7.47212 87.2403 7.25485 87.3595 7.06701C87.4787 6.87917 87.6356 6.72613 87.8173 6.62054C87.999 6.51494 88.2003 6.45982 88.4045 6.45972H91.4689L94.6054 18.9307L97.5649 6.45972H100.981L104.008 19.1918L107.156 6.45972H111.953Z" fill="white"/>
<path d="M107.156 6.45972L104.001 19.1918L100.974 6.45972H97.5603L94.6054 18.9307L91.4689 6.45972H88.4045C88.2003 6.45982 87.999 6.51494 87.8173 6.62054C87.6356 6.72613 87.4787 6.87917 87.3595 7.06701C87.2403 7.25485 87.1623 7.47212 87.1318 7.70086C87.1014 7.92961 87.1194 8.16328 87.1844 8.38259L88.8749 14.109L92.1697 25.2611H96.3425L99.2345 14.0563L102.262 25.2611H106.434L111.953 6.45972H107.156Z" fill="#EE1C25"/>
</svg>
